<!-- Generated by IcoMoon.io -->
<svg version="1.1" xmlns="http://www.w3.org/2000/svg" width="32" height="32" viewBox="0 0 32 32">
<title>adventurer</title>
<path d="M31.598 16.964l-2.481 1.045c-0.049 0.021-0.094 0.049-0.135 0.083l-3.35 2.841-0.059-0.143c-0.324-0.777-1.193-1.171-1.991-0.904l-0.366 0.123-0.271-0.274-1.277-2.128 1.471-6.713 0.759-0.38c0.467-0.235 0.748-0.726 0.715-1.248s-0.373-0.974-0.866-1.149l0.314-1.431c0.052-0.278-0.126-0.547-0.402-0.607s-0.55 0.11-0.619 0.384l-0.384 1.752-4.026 2.016-1.515-1.299 0.023-0.134c0.087-0.532-0.012-1.078-0.282-1.545 0.896-0.062 1.712-0.541 2.202-1.293s0.599-1.692 0.294-2.537l1.84-0.919c0.259-0.129 0.366-0.443 0.237-0.703s-0.443-0.365-0.703-0.237l-1.901 0.95c-1.006-1.182-2.769-1.35-3.981-0.38s-1.432 2.728-0.497 3.968c-0.155 0.031-0.305 0.078-0.45 0.14l0.074-0.39c0.042-0.224-0.008-0.457-0.141-0.643s-0.335-0.311-0.561-0.345l-2.424-0.359c-0.716-0.11-1.387 0.374-1.508 1.088l-0.61 3.46-0.668-0.143c-0.288-0.062-0.59-0.005-0.836 0.157s-0.418 0.417-0.475 0.706l-0.504 2.555c-0.058 0.294 0.007 0.599 0.179 0.845s0.437 0.41 0.733 0.456l1.278 0.196 2.944 0.395-0.028 0.084c-0.246 0.729-0.056 1.535 0.49 2.078 0.017 0.017 0.037 0.029 0.052 0.045l1.229 3.479-2.548 3.873-1.312 1.555c-0.103 0.122-0.145 0.284-0.113 0.441s0.133 0.29 0.275 0.362l2.525 1.287-1.127 0.679-10.825 1.358 0.13 1.037 10.935-1.371c0.073-0.009 0.143-0.033 0.205-0.072l6.98-4.219 7.673-2.827c0.057-0.021 0.11-0.053 0.157-0.092l3.512-2.978 2.408-1.013zM23.239 21.102l0.679-0.228c0.277-0.092 0.579 0.044 0.692 0.314l0.070 0.169-2.649 0.976-0.424-1.034 0.854-0.569 0.241 0.245c0.14 0.141 0.347 0.191 0.536 0.128zM13.194 15.931c-0.3-0.027-0.571-0.19-0.735-0.442s-0.205-0.566-0.11-0.851l0.108-0.326h3.207l3.389 0.969 1.506 2.508-0.273 1.246-1.492-2.387c-0.086-0.139-0.233-0.23-0.396-0.246zM15.298 13.266h-2.602l0.242-1.472 0.171-0.015c0.877-0.080 1.735-0.307 2.537-0.67l0.024 0.021zM13.115 10.725l0.308-1.87c0.060 0.272 0.207 0.518 0.418 0.7l0.919 0.791c-0.531 0.194-1.084 0.321-1.646 0.379zM21.049 22.696l-0.54 0.199 0.217-0.989zM21.824 19.901l-0.705 0.47-0.042-0.068 0.264-1.207zM20.884 16.303l-1.042-1.736c-0.068-0.114-0.177-0.197-0.305-0.234l-3.204-0.917 0.261-1.492 0.993 0.854c0.399 0.343 0.966 0.413 1.437 0.177l2.916-1.46zM23.194 9.114c0.062-0.032 0.134-0.037 0.201-0.015s0.119 0.069 0.15 0.131c0.065 0.129 0.013 0.285-0.115 0.35l-4.877 2.442c-0.094 0.045-0.206 0.031-0.286-0.036l-3.743-3.222c-0.080-0.069-0.11-0.179-0.077-0.28s0.123-0.171 0.228-0.179h0.019c0.063 0 0.123 0.022 0.17 0.063l3.612 3.108zM18.48 4.385c0.003 0.785-0.497 1.483-1.24 1.734s-1.564-0.002-2.037-0.627l3.199-1.598c0.049 0.159 0.075 0.325 0.078 0.492zM16.651 2.557c0.439 0.002 0.861 0.162 1.19 0.452l-3.007 1.501c0-0.042-0.012-0.082-0.012-0.124 0.001-1.009 0.819-1.827 1.828-1.829zM15.040 7.116c0.49 0.078 0.891 0.433 1.027 0.91l-0.522-0.449c-0.533-0.461-1.337-0.412-1.811 0.109 0.282-0.434 0.796-0.658 1.306-0.57zM7.274 12.531l0.504-2.555-0.513-0.101 0.579 0.057 0.704 0.151-0.463 2.632-0.765-0.118zM10.369 5.775c0.029-0.153 0.172-0.256 0.326-0.235l2.212 0.328-0.402 2.133v0.011l-0.858 5.192-2.527-0.34zM14.202 19.805l-0.997-2.825 1.866 0.17 0.426 2.782-3.043 4.446-0.721-0.445 2.413-3.667c0.090-0.136 0.111-0.307 0.057-0.461zM13.005 26.79l-2.516-1.282 0.619-0.731 1.221 0.753c0.041 0.025 0.086 0.044 0.132 0.057s0.094 0.020 0.142 0.020h0.060c0.475 0.001 0.89 0.319 1.015 0.777l-0.161 0.097zM17.842 23.877c-0.031 0.011-0.061 0.026-0.090 0.043l-3.164 1.913c-0.214-0.497-0.611-0.891-1.11-1.102l2.998-4.38c0.075-0.109 0.106-0.243 0.085-0.374l-0.418-2.731 1.902 0.173 1.922 3.074-0.62 2.829z"></path>
</svg>
