<!-- Generated by IcoMoon.io -->
<svg version="1.1" xmlns="http://www.w3.org/2000/svg" width="32" height="32" viewBox="0 0 32 32">
<title>axe</title>
<path d="M30.942 6.673l-8.037-1.758c-0.231-0.054-0.45-0.151-0.647-0.284l-0.197-0.133 0.388-0.573c0.255-0.376 0.351-0.838 0.265-1.285s-0.345-0.841-0.721-1.096l-1.628-1.104c-0.881-0.598-2.081-0.37-2.681 0.51l-0.269 0.397-0.947-0.642c-0.622-0.42-1.467-0.258-1.889 0.362l-2.235 3.296c-0.421 0.622-0.259 1.468 0.362 1.891l0.717 0.486c0.060 0.042 0.117 0.089 0.171 0.139-0.297 1.809-1.163 4.923-3.686 7.202-3.19 2.881-7.873 10.873-9.741 14.179-0.425 0.767-0.024 1.841 0.935 2.5 1.112 0.761 1.998 1.135 2.693 1.135 0.108 0 0.216-0.009 0.322-0.029 0.36-0.064 0.679-0.272 0.883-0.576 0.413-0.726 0.588-1.564 0.5-2.395-0.103-1.121 0.175-2.244 0.789-3.188 1.337-1.668 2.761-3.265 4.266-4.782 2.982-3.166 6.361-6.755 7.417-8.767 0.352-0.666 0.66-1.272 0.933-1.818 1.154 0.332 1.33 1.139 1.569 2.839 0.058 0.409 0.119 0.842 0.205 1.292 0.361 1.876 1.955 3.113 2.874 3.684 0.256 0.161 0.552 0.247 0.854 0.248 0.194-0 0.386-0.036 0.567-0.106 0.929-0.358 2.772-1.378 4.679-4.189 1.238-1.791 2.039-3.847 2.34-6.003 0.053-0.672-0.396-1.282-1.054-1.431zM18.568 1.548c0.269-0.393 0.806-0.494 1.199-0.226l1.628 1.104c0.142 0.096 0.24 0.245 0.273 0.414s-0.004 0.343-0.1 0.485l-0.388 0.573-2.88-1.953 0.269-0.397zM17.031 11.66c-0.989 1.884-4.461 5.57-7.25 8.533-1.548 1.555-3.008 3.196-4.372 4.914-0.735 1.121-1.078 2.454-0.973 3.79 0.078 0.616-0.032 1.24-0.316 1.792-0.045 0.070-0.117 0.116-0.199 0.127-0.197 0.037-0.81 0.022-2.213-0.937-0.519-0.357-0.736-0.867-0.607-1.099 1.436-2.541 6.365-11.055 9.525-13.909 1.943-1.839 3.28-4.227 3.831-6.846l0.144 0.203c0.752 1.059 1.91 1.758 3.197 1.932l0.006 0.001c-0.232 0.461-0.487 0.958-0.772 1.498zM22.008 15.057c-0.127-0.249-0.221-0.514-0.278-0.788-0.083-0.432-0.141-0.847-0.196-1.239-0.24-1.71-0.468-3.325-2.633-3.798l-0.963-0.129c-0.993-0.134-1.887-0.674-2.468-1.491l-0.784-1.106c-0.025-0.035-0.057-0.064-0.083-0.098-0.016-0.022-0.034-0.043-0.053-0.063-0.152-0.187-0.329-0.352-0.526-0.489l-0.717-0.487c-0.065-0.044-0.109-0.112-0.124-0.188s0.002-0.156 0.046-0.221l2.235-3.296c0.091-0.134 0.274-0.169 0.408-0.078h-0l1.377 0.934c0.004 0.003 0.006 0.007 0.010 0.010s0.009 0.003 0.013 0.005l3.74 2.537c0.004 0.003 0.006 0.007 0.010 0.010 0.005 0.004 0.012 0.005 0.017 0.008l0.622 0.422c0.306 0.208 0.648 0.358 1.009 0.442l4.396 0.961c-0.236 1.398-1.202 4.583-5.055 8.141zM28.773 13.508c-1.744 2.571-3.367 3.479-4.179 3.792-0.158 0.059-0.334 0.039-0.475-0.052-0.566-0.353-1.076-0.787-1.515-1.289 4.093-3.726 5.21-7.090 5.504-8.814l2.598 0.568c0.142 0.033 0.238 0.164 0.227 0.309-0.291 1.97-1.029 3.846-2.159 5.486z"></path>
</svg>
