<!-- Generated by IcoMoon.io -->
<svg version="1.1" xmlns="http://www.w3.org/2000/svg" width="32" height="32" viewBox="0 0 32 32">
<title>car</title>
<path d="M30.448 22.91c-0.004-0.004-0.005-0.011-0.010-0.015s-0.011-0.006-0.015-0.010c-2.068-2.061-5.41-2.071-7.489-0.021v-7.931c0-0.294-0.239-0.533-0.533-0.533s-0.533 0.239-0.533 0.533v0.533h-1.286l-2.447-4.405v-6.795c0.294 0 0.533-0.239 0.533-0.533s-0.239-0.533-0.533-0.533h-0.043c-0.207-1.444-1.236-2.635-2.635-3.047s-2.91 0.028-3.868 1.127c-0.287-0.14-0.602-0.213-0.921-0.213-0.972 0.001-1.822 0.659-2.066 1.6-0.529-0.012-1.048 0.134-1.493 0.419-0.564-0.848-1.649-1.18-2.591-0.791s-1.477 1.389-1.278 2.388c0.199 0.999 1.076 1.718 2.095 1.717 0.243 0 0.484-0.042 0.713-0.124 0.434 1.153 1.603 1.857 2.826 1.702s2.179-1.128 2.312-2.353c0.579 0.972 1.564 1.633 2.683 1.8v3.637l-2.447 4.405h-1.286v-0.533c0-0.294-0.239-0.533-0.533-0.533s-0.533 0.239-0.533 0.533v7.931c-2.080-2.050-5.423-2.040-7.491 0.021-0.004 0.004-0.010 0.005-0.014 0.010s-0.005 0.010-0.009 0.014c-2.071 2.077-2.071 5.438 0 7.515 0.004 0.004 0.005 0.010 0.009 0.014s0.010 0.005 0.014 0.010c2.077 2.070 5.437 2.070 7.515 0 0.004-0.004 0.010-0.005 0.014-0.010s0.005-0.010 0.009-0.014c0.865-0.867 1.404-2.006 1.526-3.224h10.72c0.122 1.218 0.661 2.357 1.526 3.224 0.004 0.004 0.005 0.010 0.009 0.014s0.010 0.005 0.014 0.010c2.077 2.070 5.437 2.070 7.514 0 0.004-0.004 0.011-0.005 0.015-0.010s0.006-0.011 0.010-0.015c2.069-2.077 2.069-5.436 0-7.512zM30.033 29.28l-1.926-1.928c0.023-0.050 0.044-0.1 0.062-0.152h2.728c-0.095 0.759-0.394 1.477-0.863 2.080zM22.437 27.2h2.728c0.018 0.052 0.039 0.103 0.062 0.152l-1.927 1.928c-0.47-0.603-0.768-1.322-0.863-2.080zM8.7 29.28l-1.926-1.928c0.023-0.050 0.044-0.1 0.062-0.152h2.728c-0.095 0.759-0.394 1.477-0.864 2.080zM1.104 27.2h2.728c0.018 0.052 0.039 0.103 0.062 0.152l-1.927 1.928c-0.47-0.603-0.768-1.322-0.863-2.080zM1.967 24.053l1.927 1.928c-0.023 0.049-0.044 0.1-0.062 0.152h-2.728c0.095-0.758 0.393-1.477 0.863-2.080zM26.667 27.2c-0.294 0-0.533-0.239-0.533-0.533s0.239-0.533 0.533-0.533c0.295 0 0.533 0.239 0.533 0.533s-0.239 0.533-0.533 0.533zM27.352 25.227c-0.050-0.023-0.1-0.044-0.152-0.062v-2.728c0.759 0.095 1.477 0.394 2.080 0.863zM26.133 25.165c-0.052 0.018-0.103 0.039-0.152 0.063l-1.928-1.927c0.603-0.47 1.322-0.768 2.080-0.863zM25.227 25.981c-0.024 0.049-0.044 0.1-0.062 0.152h-2.727c0.095-0.758 0.394-1.477 0.863-2.080zM20.8 21.867h1.067v2.133h-1.067zM21.867 20.8h-1.067v-1.6h1.067zM19.734 24h-7.467v-7.466h7.467zM10.134 24v-2.133h1.067v2.133zM11.2 20.8h-1.067v-1.6h1.067zM9.564 26.133h-2.728c-0.018-0.052-0.039-0.103-0.063-0.152l1.927-1.928c0.47 0.603 0.768 1.322 0.864 2.080zM5.334 27.2c-0.294 0-0.533-0.239-0.533-0.533s0.239-0.533 0.533-0.533c0.295 0 0.533 0.239 0.533 0.533s-0.239 0.533-0.533 0.533zM6.019 25.227c-0.049-0.023-0.1-0.044-0.152-0.062v-2.728c0.759 0.095 1.477 0.394 2.080 0.863zM4.8 25.165c-0.052 0.018-0.103 0.039-0.152 0.063l-1.928-1.927c0.603-0.47 1.322-0.768 2.080-0.863zM4.648 28.107c0.050 0.023 0.1 0.044 0.152 0.062v2.728c-0.759-0.095-1.477-0.393-2.080-0.863zM5.867 28.169c0.052-0.018 0.103-0.039 0.152-0.063l1.928 1.927c-0.603 0.47-1.321 0.768-2.080 0.863zM10.421 25.067h11.158c-0.109 0.347-0.183 0.705-0.218 1.067h-10.72c-0.036-0.362-0.11-0.719-0.22-1.067zM25.981 28.107c0.050 0.024 0.1 0.044 0.152 0.063v2.728c-0.759-0.095-1.477-0.394-2.080-0.863zM27.2 28.169c0.052-0.018 0.103-0.039 0.152-0.063l1.928 1.927c-0.603 0.47-1.322 0.768-2.080 0.863zM28.169 26.133c-0.018-0.052-0.039-0.103-0.062-0.152l1.927-1.928c0.47 0.603 0.768 1.322 0.863 2.080zM21.867 18.133h-1.067v-1.6h1.067zM14.934 6.934v-2.666h2.133v6.4h-2.133zM11.846 4.497c-0.044-0.148-0.151-0.27-0.292-0.333s-0.303-0.063-0.443 0.002c-0.129 0.061-0.269 0.095-0.411 0.101-0.018 0-0.072-0.009-0.090-0.009-0.17-0.010-0.333 0.065-0.437 0.199-0.106 0.132-0.143 0.306-0.1 0.47 0.038 0.132 0.058 0.269 0.060 0.407 0.006 0.869-0.686 1.583-1.555 1.605s-1.596-0.656-1.635-1.524c-0.011-0.206-0.139-0.388-0.331-0.466-0.064-0.026-0.133-0.039-0.202-0.039-0.134 0-0.263 0.050-0.361 0.141-0.358 0.327-0.891 0.37-1.297 0.105s-0.582-0.77-0.427-1.229 0.599-0.756 1.083-0.722c0.483 0.034 0.883 0.39 0.971 0.867 0.038 0.203 0.189 0.366 0.389 0.418s0.412-0.015 0.544-0.174c0.386-0.488 1.028-0.694 1.625-0.521 0.164 0.043 0.339 0.006 0.472-0.101s0.206-0.27 0.198-0.44c0.001-0.018-0.001-0.036-0.008-0.053 0-0.589 0.478-1.067 1.067-1.067 0.256 0.002 0.502 0.096 0.693 0.267 0.117 0.102 0.272 0.149 0.426 0.127s0.29-0.109 0.374-0.239c0.588-0.911 1.668-1.375 2.733-1.175s1.903 1.025 2.12 2.087h-3.146c-0.295 0-0.533 0.239-0.533 0.533s0.239 0.533 0.533 0.533v2.080c-0.961-0.201-1.736-0.91-2.021-1.85zM14.714 11.733h2.573l2.073 3.733h-6.72zM11.2 16.533v1.6h-1.067v-1.6z"></path>
<path d="M1.6 3.2c0.884 0 1.6-0.716 1.6-1.6s-0.716-1.6-1.6-1.6c-0.884 0-1.6 0.716-1.6 1.6s0.716 1.6 1.6 1.6zM1.6 1.067c0.295 0 0.533 0.239 0.533 0.533s-0.239 0.533-0.533 0.533c-0.294 0-0.533-0.239-0.533-0.533s0.239-0.533 0.533-0.533z"></path>
<path d="M16 22.933c1.079 0 2.051-0.65 2.464-1.646s0.185-2.143-0.578-2.906-1.91-0.991-2.906-0.578c-0.997 0.413-1.646 1.385-1.646 2.464 0.002 1.472 1.195 2.665 2.667 2.666zM16 18.667c0.884 0 1.6 0.716 1.6 1.6s-0.716 1.6-1.6 1.6c-0.884 0-1.6-0.716-1.6-1.6s0.716-1.6 1.6-1.6z"></path>
<path d="M16.157 21.177c0.209 0.202 0.542 0.199 0.748-0.007s0.209-0.538 0.007-0.748l-0.533-0.533c-0.209-0.202-0.542-0.199-0.748 0.007s-0.209 0.538-0.007 0.748z"></path>
<path d="M5.867 14.933h-2.667c-0.294 0-0.533 0.239-0.533 0.533s0.239 0.533 0.533 0.533h2.667c0.294 0 0.533-0.239 0.533-0.533s-0.239-0.533-0.533-0.533z"></path>
<path d="M4.267 17.6c0 0.294 0.239 0.533 0.533 0.533h2.666c0.295 0 0.533-0.239 0.533-0.533s-0.239-0.533-0.533-0.533h-2.666c-0.295 0-0.533 0.239-0.533 0.533z"></path>
</svg>
