<!-- Generated by IcoMoon.io -->
<svg version="1.1" xmlns="http://www.w3.org/2000/svg" width="32" height="32" viewBox="0 0 32 32">
<title>creativity</title>
<path d="M10.966 6.366c-0.976 0.369-1.675 1.305-1.675 2.408 0 0.425 0.113 0.82 0.296 1.174-0.774 0.298-1.328 1.044-1.328 1.922s0.554 1.625 1.328 1.923c-0.183 0.354-0.296 0.749-0.296 1.174 0 1.104 0.699 2.040 1.675 2.408-0.077 0.216-0.127 0.446-0.127 0.689 0 1.139 0.926 2.064 2.064 2.064 0.257 0 0.501-0.053 0.728-0.139 0.334 0.69 1.036 1.171 1.853 1.171 1.139 0 2.064-0.926 2.064-2.064v-14.451c0-1.138-0.926-2.064-2.064-2.064-0.817 0-1.518 0.481-1.853 1.171-0.227-0.086-0.471-0.139-0.728-0.139-1.139 0-2.064 0.926-2.064 2.064 0 0.243 0.050 0.472 0.127 0.689zM12.904 4.646c0.569 0 1.032 0.463 1.032 1.032h1.032c0-0.496-0.183-0.946-0.476-1.302 0.12-0.438 0.517-0.762 0.992-0.762 0.569 0 1.032 0.463 1.032 1.032v14.451c0 0.569-0.463 1.032-1.032 1.032-0.475 0-0.872-0.325-0.992-0.762 0.293-0.356 0.476-0.806 0.476-1.302h-1.032c0 0.569-0.463 1.032-1.032 1.032s-1.032-0.463-1.032-1.032c0-0.569 0.463-1.032 1.032-1.032v-1.032c-0.503 0-0.958 0.188-1.316 0.487-0.719-0.134-1.265-0.763-1.265-1.52 0-0.854 0.695-1.548 1.548-1.548s1.548 0.695 1.548 1.548h1.032c0-1.423-1.158-2.581-2.581-2.581-0.583 0-1.116 0.202-1.548 0.53v-0.014c-0.569 0-1.032-0.463-1.032-1.032s0.463-1.032 1.032-1.032v-0.013c0.432 0.328 0.965 0.529 1.548 0.529 1.423 0 2.581-1.158 2.581-2.581h-1.032c0 0.854-0.695 1.548-1.548 1.548s-1.548-0.695-1.548-1.548c0-0.757 0.546-1.386 1.265-1.519 0.358 0.299 0.813 0.487 1.316 0.487v-1.032c-0.569 0-1.032-0.463-1.032-1.032s0.463-1.032 1.032-1.032z"></path>
<path d="M23.226 3.613c-0.257 0-0.5 0.053-0.728 0.139-0.335-0.69-1.036-1.171-1.853-1.171-1.139 0-2.064 0.926-2.064 2.064v14.451c0 1.139 0.926 2.064 2.064 2.064 0.817 0 1.518-0.481 1.853-1.171 0.227 0.086 0.471 0.139 0.728 0.139 1.139 0 2.064-0.926 2.064-2.064 0-0.242-0.049-0.472-0.127-0.689 0.976-0.368 1.675-1.305 1.675-2.408 0-0.425-0.113-0.82-0.296-1.174 0.774-0.298 1.328-1.044 1.328-1.923s-0.554-1.625-1.328-1.922c0.183-0.354 0.296-0.749 0.296-1.174 0-1.103-0.699-2.040-1.675-2.408 0.078-0.216 0.127-0.446 0.127-0.689 0-1.138-0.926-2.064-2.064-2.064zM25.807 8.775c0 0.854-0.695 1.548-1.548 1.548s-1.548-0.695-1.548-1.548h-1.032c0 1.423 1.158 2.581 2.581 2.581 0.583 0 1.116-0.202 1.548-0.529v0.013c0.569 0 1.032 0.463 1.032 1.032s-0.463 1.032-1.032 1.032v0.014c-0.432-0.328-0.965-0.53-1.548-0.53-1.423 0-2.581 1.158-2.581 2.581h1.032c0-0.854 0.695-1.548 1.548-1.548s1.548 0.695 1.548 1.548c0 0.757-0.546 1.386-1.264 1.52-0.358-0.299-0.814-0.487-1.316-0.487v1.032c0.569 0 1.032 0.463 1.032 1.032s-0.463 1.032-1.032 1.032c-0.569 0-1.032-0.463-1.032-1.032h-1.032c0 0.496 0.183 0.946 0.476 1.302-0.12 0.438-0.517 0.762-0.992 0.762-0.569 0-1.032-0.463-1.032-1.032v-14.451c0-0.569 0.463-1.032 1.032-1.032 0.475 0 0.872 0.325 0.992 0.762-0.293 0.356-0.476 0.806-0.476 1.302h1.032c0-0.569 0.463-1.032 1.032-1.032s1.032 0.463 1.032 1.032c0 0.569-0.463 1.032-1.032 1.032v1.032c0.503 0 0.958-0.188 1.316-0.487 0.718 0.134 1.264 0.763 1.264 1.519z"></path>
<path d="M26.192 3.219c-2.412-2.267-5.57-3.403-8.885-3.195l0.064 1.030c3.029-0.188 5.912 0.848 8.115 2.917 2.204 2.071 3.418 4.877 3.418 7.9 0 3.643-1.816 7.021-4.857 9.036-1.049 0.696-1.843 1.688-2.332 2.834h-7.32c-0.496-1.155-1.293-2.154-2.344-2.856-3.135-2.095-4.936-5.594-4.818-9.36l-1.032-0.032c-0.129 4.125 1.844 7.957 5.277 10.25 0.758 0.507 1.363 1.197 1.785 1.998h-1.391v1.032h1.803c0.1 0.334 0.18 0.677 0.221 1.032h-0.991v1.032h1.032v1.548c0 0.286 0.231 0.516 0.516 0.516h0.516c0 1.708 1.389 3.097 3.097 3.097s3.097-1.389 3.097-3.097h0.516c0.285 0 0.516-0.231 0.516-0.516v-1.548h1.032v-1.032h-0.996c0.037-0.355 0.109-0.698 0.207-1.032h1.821v-1.032h-1.414c0.416-0.793 1.018-1.474 1.772-1.974 3.33-2.209 5.319-5.908 5.319-9.897 0-3.263-1.365-6.417-3.743-8.652zM18.065 30.968c-1.139 0-2.064-0.926-2.064-2.064h4.129c0 1.139-0.926 2.064-2.064 2.064zM21.161 27.871h-6.193v-1.032h6.193zM21.198 25.806h-6.272c-0.035-0.351-0.090-0.697-0.175-1.032h6.607c-0.082 0.335-0.13 0.682-0.161 1.032z"></path>
<path d="M5.678 3.613c1.139 0 2.064 0.926 2.064 2.064 0 0.286 0.231 0.516 0.516 0.516s0.516-0.231 0.516-0.516c0-1.138 0.926-2.064 2.064-2.064 0.285 0 0.516-0.231 0.516-0.516s-0.231-0.516-0.516-0.516c-1.139 0-2.064-0.926-2.064-2.064 0-0.285-0.231-0.516-0.516-0.516s-0.516 0.231-0.516 0.516c0 1.139-0.926 2.064-2.064 2.064-0.285 0-0.516 0.231-0.516 0.516s0.231 0.516 0.516 0.516zM8.258 2.227c0.229 0.345 0.526 0.642 0.871 0.871-0.345 0.229-0.641 0.526-0.871 0.871-0.229-0.345-0.526-0.641-0.871-0.871 0.345-0.229 0.642-0.526 0.871-0.871z"></path>
<path d="M7.742 8.775c0.285 0 0.516-0.231 0.516-0.516s-0.231-0.516-0.516-0.516c-1.139 0-2.064-0.926-2.064-2.064 0-0.285-0.231-0.516-0.516-0.516s-0.516 0.231-0.516 0.516c0 1.139-0.926 2.064-2.064 2.064-0.285 0-0.516 0.231-0.516 0.516s0.231 0.516 0.516 0.516c1.139 0 2.064 0.926 2.064 2.064 0 0.286 0.231 0.516 0.516 0.516s0.516-0.231 0.516-0.516c0-1.138 0.926-2.064 2.064-2.064zM5.162 9.129c-0.229-0.345-0.526-0.641-0.871-0.871 0.345-0.229 0.641-0.526 0.871-0.871 0.229 0.345 0.526 0.641 0.871 0.871-0.345 0.229-0.641 0.526-0.871 0.871z"></path>
</svg>
