<!-- Generated by IcoMoon.io -->
<svg version="1.1" xmlns="http://www.w3.org/2000/svg" width="32" height="32" viewBox="0 0 32 32">
<title>locomotive</title>
<path d="M16.001 9.067c-1.178 0-2.133 0.955-2.133 2.133s0.955 2.133 2.133 2.133c1.178 0 2.133-0.955 2.133-2.133s-0.955-2.133-2.133-2.133zM16.001 12.267c-0.589 0-1.067-0.478-1.067-1.067s0.478-1.067 1.067-1.067 1.067 0.478 1.067 1.067c0 0.589-0.478 1.067-1.067 1.067z"></path>
<path d="M18.827 6.149c0.331 0.798 1.11 1.318 1.973 1.318 0.094 0 0.188-0.006 0.282-0.019 0.47 0.823 1.424 1.24 2.347 1.025 0.515 0.733 1.366 1.157 2.261 1.126s1.715-0.512 2.178-1.28c0.518 0.252 1.116 0.283 1.657 0.086s0.979-0.606 1.213-1.132c0.768-0.338 1.263-1.1 1.261-1.939 0-1.178-0.955-2.133-2.133-2.133-0.673-0.003-1.307 0.316-1.706 0.858-0.332-1.139-1.374-1.922-2.56-1.924-0.674-0.002-1.323 0.254-1.813 0.716-0.356-0.16-0.751-0.217-1.138-0.164-0.454-0.797-1.364-1.216-2.264-1.043-0.658-1.187-1.995-1.827-3.332-1.597s-2.382 1.282-2.604 2.62h-0.048c-0.295 0-0.533 0.239-0.533 0.533s0.239 0.533 0.533 0.533v3.427c-2.461 0.702-4.183 2.916-4.258 5.474-1.131 0.532-1.919 1.596-2.1 2.832h-0.575c-0.294 0-0.533 0.239-0.533 0.533s0.239 0.533 0.533 0.533h0.533v2.667h-1.6c-0.295 0-0.533 0.239-0.533 0.533s0.239 0.533 0.533 0.533h0.533v1.067h-6.4c-0.294 0-0.533 0.239-0.533 0.533s0.239 0.533 0.533 0.533h6.4v0.098c-0.639 0.223-1.067 0.825-1.067 1.502s0.428 1.279 1.067 1.502v0.632c0 0.884 0.717 1.6 1.6 1.6v0.73c0.005 0.703 0.478 1.316 1.156 1.5 0.327 0.105 0.648 0.229 0.96 0.373l0.098 0.042-0.526 0.789c-0.163 0.245-0.097 0.576 0.148 0.74s0.576 0.097 0.74-0.148l0.651-0.976c0.564 0.204 1.144 0.361 1.734 0.469h0.012c0.823 0.146 1.659 0.218 2.495 0.213 0.836 0.005 1.672-0.067 2.495-0.213h0.012c0.589-0.107 1.168-0.263 1.732-0.466l0.651 0.976c0.106 0.158 0.288 0.249 0.478 0.236s0.359-0.125 0.444-0.296c0.084-0.171 0.071-0.374-0.035-0.532l-0.526-0.789 0.098-0.042c0.312-0.144 0.633-0.268 0.96-0.373 0.68-0.184 1.153-0.799 1.157-1.503v-0.73c0.884 0 1.6-0.716 1.6-1.6v-0.632c0.639-0.223 1.067-0.825 1.067-1.502s-0.428-1.279-1.067-1.502v-0.098h6.4c0.295 0 0.533-0.239 0.533-0.533s-0.239-0.533-0.533-0.533h-6.4v-1.067h0.533c0.295 0 0.533-0.239 0.533-0.533s-0.239-0.533-0.533-0.533h-1.6v-2.667h0.533c0.295 0 0.533-0.239 0.533-0.533s-0.239-0.533-0.533-0.533h-0.575c-0.181-1.236-0.969-2.3-2.1-2.832-0.075-2.558-1.797-4.772-4.258-5.474v-0.769c0.421 0.002 0.838-0.080 1.227-0.242zM17.601 1.067c0.897 0.004 1.696 0.57 1.998 1.415 0.052 0.143 0.161 0.257 0.302 0.314s0.299 0.051 0.435-0.016c0.284-0.139 0.616-0.143 0.904-0.012s0.503 0.384 0.585 0.689c0.040 0.147 0.141 0.27 0.277 0.338s0.295 0.074 0.436 0.017c0.346-0.141 0.74-0.086 1.035 0.143 0.113 0.086 0.256 0.123 0.397 0.103s0.268-0.095 0.353-0.209c0.299-0.407 0.773-0.647 1.278-0.647 0.486-0.002 0.946 0.217 1.25 0.595s0.418 0.875 0.311 1.349c-0.050 0.23 0.057 0.466 0.263 0.58s0.463 0.079 0.631-0.086c0.124-0.119 0.274-0.206 0.439-0.253 0.172-0.051 0.307-0.186 0.358-0.357 0.13-0.452 0.544-0.762 1.014-0.762 0.589 0 1.067 0.478 1.067 1.067 0 0.47-0.311 0.883-0.762 1.013-0.172 0.051-0.306 0.186-0.357 0.357-0.105 0.364-0.397 0.644-0.766 0.733s-0.756-0.026-1.016-0.302c-0.133-0.138-0.329-0.195-0.515-0.149s-0.332 0.19-0.384 0.374c-0.176 0.649-0.74 1.118-1.411 1.171s-1.301-0.323-1.576-0.937c-0.061-0.133-0.173-0.235-0.311-0.283-0.056-0.019-0.115-0.029-0.175-0.029-0.085 0-0.169 0.021-0.245 0.060-0.284 0.148-0.621 0.159-0.914 0.030s-0.512-0.385-0.595-0.695c-0.040-0.147-0.141-0.27-0.277-0.338s-0.295-0.074-0.436-0.017c-0.32 0.128-0.682 0.094-0.972-0.091s-0.473-0.5-0.491-0.844c0.027-0.213-0.077-0.42-0.262-0.528s-0.417-0.093-0.588 0.036c-0.367 0.283-0.817 0.437-1.28 0.438v-1.6c0.295 0 0.533-0.239 0.533-0.533s-0.239-0.533-0.533-0.533h-2.066c0.244-0.941 1.093-1.599 2.066-1.6zM10.219 13.806c0.008 0.045 0.020 0.090 0.028 0.136 0.006 0.029 0.012 0.058 0.019 0.087 0.036 0.169 0.078 0.337 0.129 0.501l0.006 0.020c0.098 0.316 0.223 0.623 0.373 0.918h-1.653c0.138-0.675 0.531-1.27 1.098-1.661zM9.068 16.533h2.407c0.35 0.423 0.757 0.793 1.211 1.101 0.016 0.011 0.031 0.023 0.047 0.034 0.116 0.077 0.236 0.148 0.357 0.218 0.053 0.031 0.107 0.063 0.16 0.091 0.029 0.015 0.056 0.034 0.086 0.050v1.173h-1.159c-0.006-0.019-0.016-0.035-0.023-0.053-0.012-0.029-0.024-0.053-0.037-0.083-0.028-0.060-0.060-0.119-0.095-0.175-0.016-0.026-0.031-0.053-0.048-0.076-0.045-0.064-0.095-0.124-0.149-0.18-0.011-0.011-0.020-0.024-0.031-0.035-0.066-0.065-0.137-0.124-0.213-0.177-0.021-0.015-0.045-0.027-0.067-0.041-0.058-0.036-0.118-0.069-0.18-0.098-0.029-0.013-0.059-0.025-0.090-0.037-0.063-0.024-0.127-0.044-0.192-0.060-0.029-0.007-0.058-0.016-0.088-0.021-0.193-0.040-0.393-0.040-0.587 0-0.030 0.005-0.058 0.014-0.087 0.021-0.065 0.016-0.129 0.036-0.192 0.060-0.031 0.012-0.060 0.023-0.089 0.037-0.062 0.029-0.123 0.062-0.181 0.098-0.022 0.014-0.045 0.026-0.067 0.041-0.076 0.053-0.147 0.113-0.213 0.177-0.011 0.011-0.020 0.024-0.031 0.035-0.054 0.057-0.104 0.117-0.149 0.18-0.018 0.024-0.032 0.050-0.048 0.075-0.035 0.056-0.067 0.115-0.095 0.176-0.013 0.028-0.026 0.053-0.037 0.083-0.008 0.018-0.018 0.035-0.024 0.053h-0.095zM15.067 18.585c0.068 0.011 0.136 0.023 0.205 0.032 0.483 0.067 0.974 0.067 1.457 0 0.069-0.009 0.137-0.021 0.205-0.032 0.178-0.028 0.352-0.064 0.522-0.107 0.048-0.012 0.097-0.017 0.144-0.030v3.951h-3.2v-3.953c0.047 0.013 0.096 0.018 0.144 0.030 0.171 0.044 0.345 0.081 0.522 0.109zM19.825 20.267c0.006 0.019 0.017 0.035 0.024 0.053 0.011 0.028 0.023 0.053 0.036 0.083 0.028 0.060 0.060 0.119 0.095 0.176 0.016 0.025 0.031 0.051 0.049 0.075 0.045 0.063 0.095 0.124 0.149 0.18 0.011 0.011 0.020 0.024 0.031 0.035 0.066 0.065 0.137 0.125 0.213 0.178 0.021 0.014 0.044 0.027 0.067 0.041 0.058 0.036 0.118 0.069 0.181 0.098 0.029 0.013 0.059 0.025 0.089 0.037 0.063 0.024 0.127 0.044 0.192 0.060 0.030 0.007 0.058 0.016 0.088 0.021 0.193 0.040 0.393 0.040 0.587 0 0.030-0.005 0.058-0.014 0.087-0.021 0.065-0.016 0.13-0.036 0.193-0.060 0.030-0.012 0.059-0.023 0.088-0.037 0.062-0.029 0.123-0.062 0.181-0.098 0.022-0.014 0.045-0.026 0.067-0.041 0.076-0.053 0.147-0.113 0.213-0.178 0.011-0.011 0.020-0.024 0.031-0.035 0.054-0.056 0.104-0.117 0.149-0.18 0.018-0.025 0.032-0.050 0.049-0.075 0.035-0.057 0.067-0.115 0.095-0.176 0.013-0.028 0.026-0.053 0.037-0.083 0.007-0.018 0.017-0.035 0.023-0.053h1.162v2.133h-5.333v-2.133zM20.8 19.733c0-0.294 0.239-0.533 0.533-0.533s0.533 0.239 0.533 0.533c0 0.295-0.239 0.533-0.533 0.533s-0.533-0.239-0.533-0.533zM8.001 22.4v-2.133h1.158c0.006 0.019 0.017 0.035 0.024 0.053 0.011 0.028 0.024 0.053 0.036 0.083 0.028 0.060 0.060 0.119 0.095 0.176 0.016 0.025 0.031 0.051 0.049 0.075 0.045 0.063 0.095 0.124 0.149 0.18 0.011 0.011 0.020 0.024 0.031 0.035 0.066 0.065 0.137 0.125 0.213 0.178 0.021 0.014 0.044 0.027 0.067 0.041 0.058 0.036 0.118 0.069 0.181 0.098 0.030 0.013 0.059 0.025 0.089 0.037 0.063 0.024 0.127 0.044 0.193 0.060 0.029 0.007 0.058 0.016 0.087 0.021 0.194 0.040 0.393 0.040 0.587 0 0.030-0.005 0.058-0.014 0.087-0.021 0.065-0.016 0.13-0.036 0.193-0.060 0.030-0.012 0.059-0.023 0.088-0.037 0.063-0.029 0.123-0.062 0.181-0.098 0.022-0.014 0.045-0.026 0.067-0.041 0.076-0.053 0.147-0.113 0.213-0.178 0.011-0.011 0.020-0.024 0.031-0.035 0.054-0.056 0.104-0.117 0.149-0.18 0.018-0.025 0.032-0.050 0.049-0.075 0.035-0.057 0.067-0.115 0.095-0.176 0.013-0.028 0.026-0.053 0.037-0.083 0.007-0.018 0.017-0.035 0.023-0.053h1.162v2.133zM10.134 19.733c0-0.294 0.239-0.533 0.533-0.533s0.533 0.239 0.533 0.533c0 0.295-0.239 0.533-0.533 0.533s-0.533-0.239-0.533-0.533zM9.601 28.463v-0.73h0.996l-0.17 1.36c-0.147-0.053-0.292-0.112-0.438-0.154-0.221-0.054-0.379-0.249-0.387-0.476zM17.647 27.733l0.231 2.54c-0.446 0.060-0.894 0.097-1.344 0.111v-2.651zM20.329 27.733l0.224 1.788c-0.526 0.227-1.068 0.411-1.623 0.552l-0.21-2.34zM15.467 30.384c-0.45-0.014-0.898-0.051-1.344-0.111l0.231-2.54h1.113zM13.071 30.073c-0.555-0.141-1.097-0.325-1.623-0.552l0.224-1.788h1.611zM22.4 28.463c-0.008 0.228-0.166 0.422-0.387 0.476-0.146 0.042-0.292 0.098-0.438 0.154l-0.17-1.36h0.996zM24 26.133c0 0.294-0.239 0.533-0.533 0.533h-14.933c-0.294 0-0.533-0.239-0.533-0.533v-0.533h15.999zM24.534 24.533h-17.066c-0.294 0-0.533-0.239-0.533-0.533s0.239-0.533 0.533-0.533h17.066c0.295 0 0.533 0.239 0.533 0.533s-0.239 0.533-0.533 0.533zM22.843 19.2c-0.006-0.019-0.017-0.035-0.023-0.053-0.012-0.029-0.025-0.053-0.037-0.083-0.028-0.060-0.060-0.119-0.095-0.175-0.016-0.026-0.031-0.053-0.049-0.076-0.045-0.064-0.095-0.124-0.149-0.18-0.011-0.011-0.020-0.024-0.031-0.035-0.066-0.065-0.137-0.124-0.213-0.177-0.021-0.015-0.045-0.027-0.067-0.041-0.058-0.036-0.118-0.069-0.18-0.098-0.029-0.013-0.059-0.025-0.090-0.037-0.063-0.024-0.127-0.044-0.192-0.060-0.029-0.007-0.058-0.016-0.087-0.021-0.194-0.040-0.393-0.040-0.587 0-0.030 0.005-0.058 0.014-0.087 0.021-0.065 0.016-0.129 0.036-0.192 0.060-0.030 0.012-0.060 0.023-0.089 0.037-0.063 0.029-0.123 0.062-0.181 0.098-0.022 0.014-0.045 0.026-0.067 0.041-0.076 0.053-0.147 0.113-0.213 0.177-0.011 0.011-0.020 0.024-0.031 0.035-0.054 0.057-0.104 0.117-0.149 0.18-0.018 0.024-0.032 0.050-0.049 0.075-0.035 0.056-0.067 0.115-0.095 0.176-0.013 0.028-0.026 0.053-0.037 0.083-0.008 0.018-0.018 0.035-0.024 0.053h-1.162v-1.173c0.030-0.015 0.057-0.034 0.086-0.050 0.053-0.029 0.107-0.061 0.16-0.091 0.121-0.069 0.242-0.14 0.357-0.218 0.016-0.011 0.031-0.023 0.047-0.034 0.453-0.308 0.86-0.678 1.209-1.101h2.407v2.667zM22.88 15.467h-1.653c0.151-0.295 0.276-0.602 0.373-0.918l0.006-0.020c0.051-0.164 0.093-0.332 0.129-0.501 0.006-0.029 0.013-0.058 0.019-0.087 0.009-0.045 0.020-0.090 0.028-0.136 0.567 0.391 0.96 0.986 1.098 1.661zM20.8 12.8c0 0.089-0.009 0.175-0.013 0.262-0.010 0.179-0.029 0.357-0.058 0.533-0.008 0.046-0.012 0.093-0.021 0.139-0.039 0.196-0.091 0.39-0.155 0.579-0.021 0.063-0.045 0.124-0.068 0.186-0.062 0.164-0.133 0.324-0.213 0.48-0.016 0.033-0.030 0.066-0.047 0.098-0.099 0.178-0.208 0.35-0.327 0.515-0.044 0.062-0.089 0.123-0.136 0.182-0.064 0.081-0.132 0.16-0.201 0.234-0.053 0.062-0.107 0.126-0.167 0.185-0.113 0.113-0.231 0.219-0.355 0.32-0.070 0.057-0.144 0.106-0.216 0.16s-0.156 0.111-0.237 0.163c-0.071 0.045-0.142 0.088-0.213 0.129-0.107 0.060-0.216 0.116-0.328 0.169-0.056 0.027-0.11 0.053-0.167 0.080s-0.107 0.041-0.16 0.062c-0.092 0.035-0.184 0.072-0.279 0.102-0.936 0.29-1.938 0.29-2.874 0-0.095-0.030-0.187-0.067-0.279-0.103-0.053-0.021-0.107-0.038-0.16-0.061s-0.111-0.053-0.167-0.080c-0.112-0.053-0.222-0.107-0.328-0.169-0.071-0.041-0.142-0.084-0.213-0.129-0.081-0.053-0.16-0.107-0.237-0.163s-0.147-0.107-0.217-0.16c-0.123-0.101-0.241-0.207-0.354-0.32-0.059-0.059-0.112-0.123-0.167-0.185-0.069-0.076-0.137-0.153-0.201-0.234-0.047-0.060-0.092-0.121-0.136-0.182-0.119-0.165-0.229-0.337-0.327-0.515-0.017-0.032-0.031-0.065-0.047-0.097-0.080-0.156-0.151-0.316-0.213-0.48-0.023-0.062-0.048-0.123-0.068-0.186-0.064-0.19-0.116-0.383-0.155-0.579-0.009-0.045-0.013-0.092-0.021-0.138-0.029-0.177-0.049-0.355-0.058-0.533-0.004-0.088-0.012-0.174-0.012-0.263 0.004-2.407 1.788-4.439 4.174-4.754 0.046-0.007 0.092-0.017 0.139-0.021s0.092-0.004 0.137-0.007c0.232-0.017 0.466-0.017 0.698 0 0.045 0.003 0.092 0.003 0.137 0.007s0.093 0.015 0.139 0.021c2.386 0.315 4.17 2.347 4.174 4.754zM15.467 6.958v-3.224h1.067v3.224c-0.178-0.016-0.355-0.024-0.533-0.024s-0.356 0.008-0.533 0.024z"></path>
</svg>
