<!-- Generated by IcoMoon.io -->
<svg version="1.1" xmlns="http://www.w3.org/2000/svg" width="32" height="32" viewBox="0 0 32 32">
<title>map</title>
<path d="M31.227 5.099l-5.12-3.090c-0.508-0.308-1.145-0.308-1.653 0l-5.084 3.068c-0.169 0.103-0.382 0.103-0.551 0l-5.084-3.068c-0.508-0.308-1.145-0.308-1.653 0l-5.084 3.068c-0.169 0.103-0.382 0.103-0.551 0l-4.018-2.425c-0.493-0.302-1.112-0.311-1.613-0.023-0.505 0.281-0.817 0.815-0.813 1.393v21.508c0.002 0.56 0.295 1.079 0.773 1.37l5.12 3.090c0.508 0.307 1.145 0.307 1.653 0l5.084-3.068c0.169-0.103 0.382-0.103 0.551 0l5.084 3.068c0.508 0.308 1.145 0.308 1.653 0l5.085-3.068c0.169-0.102 0.382-0.102 0.551 0.001l4.018 2.425c0.494 0.298 1.111 0.307 1.613 0.023s0.813-0.816 0.813-1.393v-21.508c-0.002-0.56-0.295-1.079-0.773-1.37zM30.933 16.417c-0.051-0.057-0.099-0.116-0.153-0.17-1.414-1.39-3.689-1.353-5.52-1.322-0.252 0.004-0.495 0.008-0.727 0.008-2.192 0-2.663-1.655-2.683-1.733-0.072-0.286-0.363-0.458-0.648-0.386s-0.458 0.363-0.386 0.648c0.22 0.878 1.279 2.537 3.717 2.537 0.237 0 0.486-0.004 0.745-0.008 1.629-0.029 3.659-0.061 4.754 1.016 0.606 0.596 0.901 1.488 0.901 2.726v8.244c0 0.192-0.104 0.37-0.271 0.464s-0.373 0.092-0.538-0.008l-4.018-2.424c-0.508-0.308-1.145-0.308-1.653 0l-5.084 3.068c-0.169 0.103-0.382 0.103-0.551 0l-0.481-0.29c1.023-3.034-0.853-4.602-0.935-4.669-0.229-0.185-0.565-0.149-0.75 0.081s-0.149 0.565 0.080 0.75c0.014 0.011 1.299 1.084 0.669 3.274l-3.667-2.213c-0.508-0.308-1.145-0.308-1.653 0l-5.084 3.068c-0.169 0.103-0.382 0.103-0.551 0l-5.12-3.090c-0.159-0.097-0.257-0.27-0.257-0.456v-12.697c0.958 0.084 1.888 0.368 2.728 0.835-0.039 0.242-0.060 0.486-0.062 0.731 0 2.452 3.915 8.19 4.361 8.836 0.032 0.044 0.070 0.084 0.114 0.116 0.009 0.007 0.019 0.013 0.029 0.020 0.052 0.036 0.11 0.063 0.171 0.079l0.002 0.001c0 0 0.205 0.048 0.555 0.108 0.030 0.005 0.060 0.007 0.090 0.007 0.26-0 0.482-0.188 0.525-0.444 0.030-0.189-0.045-0.38-0.196-0.498 0.947-1.414 1.819-2.876 2.612-4.382 0.992 0.329 1.862 0.951 2.492 1.785 0.105 0.16 0.288 0.252 0.479 0.24s0.361-0.125 0.446-0.297 0.070-0.376-0.037-0.535c-0.731-0.995-1.745-1.747-2.91-2.157 0.471-0.895 0.765-1.873 0.866-2.88 0.001-2.299-1.629-4.275-3.885-4.713s-4.507 0.788-5.364 2.921c-0.942-0.473-1.966-0.76-3.017-0.845v-7.74c-0.002-0.193 0.102-0.371 0.271-0.465 0.081-0.045 0.173-0.070 0.266-0.071 0.096 0 0.191 0.028 0.272 0.079l4.018 2.424c0.508 0.307 1.145 0.307 1.653 0l5.084-3.068c0.169-0.103 0.382-0.103 0.551 0l2.839 1.713c-0.193 0.417-1.079 2.527 0.135 3.741 0.209 0.206 0.544 0.204 0.751-0.003s0.208-0.543 0.003-0.751c-0.637-0.637-0.156-1.979 0.032-2.431l1.324 0.799c0.508 0.307 1.145 0.307 1.653 0l5.085-3.068c0.169-0.102 0.382-0.102 0.551 0.001l5.12 3.090c0.16 0.097 0.257 0.27 0.258 0.456v9.948zM4.8 14.4c0-2.062 1.671-3.733 3.733-3.733s3.733 1.671 3.733 3.733c0 1.6-2.391 5.549-3.733 7.58-1.342-2.030-3.733-5.979-3.733-7.58z"></path>
<path d="M11.2 14.4c0-1.473-1.194-2.667-2.667-2.667s-2.667 1.194-2.667 2.667 1.194 2.667 2.667 2.667c1.472-0.002 2.665-1.195 2.667-2.667zM6.933 14.4c0-0.884 0.716-1.6 1.6-1.6s1.6 0.716 1.6 1.6-0.716 1.6-1.6 1.6c-0.883-0.001-1.599-0.717-1.6-1.6z"></path>
<path d="M27.421 9.663v0l-2.088-0.954 0.954-2.088c0.080-0.173 0.061-0.377-0.049-0.532s-0.296-0.241-0.486-0.222-0.356 0.137-0.434 0.312l-0.954 2.088-2.088-0.954c-0.173-0.080-0.376-0.061-0.532 0.050s-0.24 0.296-0.222 0.486c0.018 0.19 0.137 0.356 0.31 0.434l1.643 0.751c-0.004 0.018-0.007 0.035-0.009 0.053 0.006 0.202 0.126 0.383 0.309 0.467l-0.809 1.771c-0.079 0.173-0.060 0.376 0.051 0.531s0.296 0.24 0.485 0.221 0.355-0.136 0.434-0.309l0.954-2.088 2.088 0.954c0.173 0.079 0.375 0.060 0.531-0.051s0.239-0.295 0.221-0.485c-0.018-0.19-0.136-0.355-0.309-0.434z"></path>
<path d="M17.534 19.283c-0.284-0.078-0.578 0.088-0.656 0.372-0.084 0.31-0.206 0.609-0.362 0.89-0.069 0.123-0.087 0.269-0.049 0.405s0.129 0.252 0.252 0.321c0.080 0.045 0.169 0.069 0.261 0.069 0.193 0 0.371-0.104 0.465-0.272 0.199-0.356 0.353-0.735 0.46-1.129 0.038-0.136 0.020-0.282-0.050-0.405s-0.186-0.213-0.322-0.251z"></path>
<path d="M18.001 16.475c-0.037-0.292-0.302-0.499-0.593-0.466-0.292 0.036-0.501 0.301-0.465 0.594 0.045 0.369 0.085 0.724 0.107 1.060 0.018 0.28 0.251 0.498 0.532 0.498 0.012 0 0.024-0.001 0.035-0.001 0.294-0.019 0.517-0.273 0.497-0.567-0.023-0.354-0.066-0.73-0.113-1.118z"></path>
<path d="M15.189 21.882c-0.284 0.167-0.585 0.305-0.897 0.412-0.278 0.097-0.425 0.401-0.328 0.68s0.402 0.425 0.68 0.328c0.378-0.131 0.743-0.299 1.088-0.502 0.253-0.15 0.337-0.477 0.187-0.731s-0.477-0.337-0.731-0.187z"></path>
<path d="M17.265 14.894h0.016c0.294-0.009 0.526-0.255 0.517-0.55-0.003-0.097-0.005-0.194-0.005-0.291-0.001-0.243 0.011-0.487 0.036-0.729 0.030-0.293-0.182-0.554-0.474-0.585s-0.555 0.18-0.587 0.473c-0.029 0.28-0.043 0.561-0.042 0.842 0 0.107 0.002 0.216 0.005 0.323 0.009 0.288 0.245 0.517 0.533 0.517z"></path>
<path d="M21.706 8.741v0c-0.38 0.062-0.755 0.145-1.125 0.248-0.256 0.072-0.42 0.323-0.383 0.586s0.262 0.46 0.528 0.46c0.049 0 0.098-0.007 0.146-0.020 0.332-0.092 0.669-0.167 1.009-0.222 0.291-0.048 0.487-0.323 0.439-0.613s-0.323-0.487-0.613-0.439z"></path>
<path d="M18.966 9.944c-0.177-0.071-0.379-0.042-0.529 0.076v0c-0.329 0.256-0.619 0.559-0.86 0.898-0.11 0.156-0.128 0.358-0.048 0.531s0.246 0.29 0.436 0.307 0.374-0.068 0.484-0.224c0.181-0.255 0.399-0.482 0.646-0.673 0.151-0.117 0.227-0.306 0.2-0.495s-0.152-0.349-0.329-0.42z"></path>
<path d="M12.675 22.808c-0.107-0.093-0.248-0.138-0.389-0.126-0.275 0.020-0.546 0.028-0.808 0.028l-0.238-0.003c-0.292 0.001-0.532 0.231-0.543 0.523-0.006 0.295 0.229 0.538 0.523 0.544l0.258 0.003c0.287 0 0.584-0.009 0.885-0.031 0.141-0.010 0.272-0.076 0.365-0.183s0.139-0.246 0.129-0.387c-0.008-0.142-0.074-0.274-0.181-0.367z"></path>
</svg>
