<svg height="512pt" viewBox="0 0 512.41892 512" width="512pt" xmlns="http://www.w3.org/2000/svg"><path d="m500.382812 379.414062c-63.011718 26.25-149.335937 40.199219-202.882812-42.503906-6.714844-10.386718-13.949219-20.292968-21.433594-29.730468 1.183594-3 2.074219-6.105469 2.660156-9.277344 20.566407 6.65625 42.046876 10.035156 63.660157 10.019531 91.851562 0 163.039062-59.109375 166.757812-62.292969 3.597657-3.042968 4.046875-8.429687 1.003907-12.027344-3.042969-3.597656-8.429688-4.046874-12.027344-1.003906-1.058594.855469-105.761719 87.484375-219.519532 47.164063-.390624-2.195313-.929687-4.359375-1.605468-6.484375-2.074219-6.273438-5.054688-12.210938-8.847656-17.621094l-34.417969-48.769531c-1.429688-2.03125-1.90625-4.582031-1.300781-6.992188.605468-2.410156 2.230468-4.4375 4.453124-5.550781l63.347657-31.675781c11.328125-5.648438 19.558593-16.042969 22.453125-28.367188.71875-3.054687 1.101562-6.179687 1.144531-9.316406 15.351563 5.738281 32.523437 3.746094 46.15625-5.351563 13.632813-9.101562 22.058594-24.195312 22.648437-40.574218 4.210938-2.261719 7.695313-5.671875 10.042969-9.839844 3.734375-6.726562 4.269531-14.769531 1.457031-21.929688-11.824218-30.363281-34.054687-47.078124-62.597656-47.078124-34.375 0-56.125 18.875-59.675781 51.789062-.417969 4.0625.167969 8.164062 1.707031 11.945312-5.507812-2.800781-11.558594-4.375-17.730468-4.609374l-77.269532-2.882813c-11.367187-.421875-22.429687 3.707031-30.734375 11.476563-8.308593 7.769531-13.167969 18.535156-13.503906 29.902343l-.121094 4.027344-83.285156-73.488281 5.046875-5.042969c3.335938-3.332031 3.339844-8.738281.007812-12.074219-3.332031-3.339844-8.738281-3.34375-12.074218-.011718l-5.804688 5.804687-16.65625-14.703125c-3.535156-3.117188-8.925781-2.78125-12.046875.753906-3.117187 3.535156-2.777343 8.929688.757813 12.046875l15.886718 13.992188-7.679687 7.679687c-2.363281 2.101563-3.375 5.335938-2.625 8.410156.753906 3.070313 3.140625 5.476563 6.207031 6.246094 3.066406.773438 6.308594-.214844 8.425782-2.5625l8.472656-8.464844 94.71875 83.625-.109375 4.140626c-.003907 10.570312 4.9375 20.535156 13.355469 26.929687.171874.144531.253906.351563.433593.488281.179688.136719.640625.375.941407.578125.296874.207031.714843.453125 1.074218.675781 1.050782.695313 2.140625 1.332032 3.265625 1.902344-7.695312 17.035156-8.867187 36.300782-3.292969 54.144532-47.050781-22.214844-98.460937-33.667969-150.492187-33.519532-4.714844 0-8.535156 3.820313-8.535156 8.53125 0 4.714844 3.820312 8.535156 8.535156 8.535156 57.695313-.265624 114.449219 14.632813 164.582031 43.195313l27.878906 39.578125-25.378906 7.679688c-16.183594 4.613281-26.800781 20.085937-25.285156 36.847656l-94.242188-66.023438c-2.492187-1.859375-5.800781-2.214844-8.632812-.925781-2.828125 1.285156-4.734375 4.011719-4.976562 7.113281-.238282 3.101563 1.230468 6.085938 3.832031 7.789063l230.792969 161.554687c6.449218 4.554688 14.152343 6.996094 22.046874 6.996094 2.429688-.003906 4.851563-.230469 7.238282-.679688 10.222656-1.890624 19.238281-7.855468 24.976562-16.523437 1.691406-2.535156 1.902344-5.78125.550782-8.515625-1.347657-2.734375-4.054688-4.539062-7.097657-4.734375-3.042969-.199219-5.960937 1.242187-7.652343 3.777344-3.21875 4.824219-8.246094 8.144531-13.945313 9.21875-5.695313 1.070312-11.585937-.195313-16.339844-3.515625l-94.667969-66.269532c.578126-.144531 1.175782-.222656 1.75-.394531l48.640626-14.683593c9.152343-2.808594 17.351562-8.085938 23.695312-15.257813 5.769531 7.550781 11.410156 15.359375 16.675781 23.472656 26.898438 44.640625 75.597657 71.511719 127.707031 70.460938 33.125-.777344 65.773438-8.082031 96.070313-21.496094 2.898437-1.117187 4.960937-3.71875 5.386719-6.792969.425781-3.074218-.855469-6.140625-3.339844-8-2.488281-1.863281-5.785156-2.226562-8.617188-.949218zm-158.847656-268.269531c-17.460937-.023437-32.097656-13.199219-33.957031-30.558593l.855469.136718c1.605468.253906 3.289062.511719 5.050781.765625.785156.121094 1.597656.222657 2.40625.335938 1.417969.195312 2.859375.382812 4.351563.570312l2.910156.339844c1.46875.171875 2.96875.324219 4.496094.480469l3.125.296875c1.707031.152343 3.414062.273437 5.121093.402343.953125.066407 1.882813.144532 2.847657.203126 2.519531.15625 5.121093.265624 7.679687.34375 1.265625.042968 2.5625.042968 3.808594.058593 1.117187 0 2.21875.058594 3.335937.058594h.613282c4.753906 0 9.539062-.195313 14.320312-.554687l2.046875-.1875c1.503906-.136719 3.019531-.222657 4.515625-.402344-3.105469 16.070312-17.160156 27.6875-33.527344 27.710937zm0-93.867187c26.9375 0 40.265625 19.6875 46.703125 36.207031.953125 2.4375.777344 5.179687-.488281 7.472656-1.183594 2.148438-3.253906 3.660157-5.65625 4.132813h-.207031c-2.105469.398437-4.265625.65625-6.441407.945312-1.3125.171875-2.558593.417969-3.933593.5625-2.875.300782-5.785157.472656-8.695313.617188-.613281 0-1.230468.101562-1.84375.125-18.511718.433594-37.015625-1.050782-55.21875-4.425782-4.335937-.761718-7.355468-4.734374-6.929687-9.113281 2.601562-24.226562 16.980469-36.523437 42.710937-36.523437zm-103.671875 304.339844-48.640625 14.6875c-4.488281 1.355468-9.339844.804687-13.410156-1.523438-4.070312-2.324219-7.003906-6.226562-8.109375-10.78125-1.746094-9.269531 3.933594-18.324219 13.035156-20.789062l25.371094-7.679688c5.25-1.582031 9.417969-5.59375 11.207031-10.777344 1.785156-5.183594.972656-10.910156-2.1875-15.394531l-31.460937-44.613281c-13.019531-18.460938-14.421875-42.714844-3.617188-62.554688 18.203125-1.691406 32.015625-17.152344 31.65625-35.433594l1.128907-1.074218 60.105468 2.234375c4.714844.175781 8.675782-3.503907 8.851563-8.214844.171875-4.714844-3.507813-8.675781-8.21875-8.851563l-60.109375-2.234374c-4.925782-.1875-9.71875 1.640624-13.269532 5.0625-3.554687 3.417968-5.558593 8.140624-5.554687 13.070312.289063 9.429688-6.71875 17.492188-16.09375 18.527344-.730469.023437-1.457031 0-2.183594-.070313-.15625 0-.289062-.085937-.445312-.101562-8.617188-.785157-15.25-7.960938-15.359375-16.613281l.894531-30.132813c.414063-13.839844 11.753906-24.84375 25.601563-24.839844h.980468l77.269532 2.882813c7.726562.277344 14.90625 4.042968 19.523437 10.242187l16.890625 22.527344c4.550781 6.074219 6.175781 13.851563 4.433594 21.238281-1.742188 7.386719-6.675782 13.621094-13.464844 17.015625l-63.351562 31.675781c-6.671876 3.335938-11.554688 9.417969-13.375 16.652344-1.820313 7.234375-.394532 14.902344 3.90625 20.996094l34.378906 48.761719c2.839844 4.03125 5.074218 8.453125 6.628906 13.132812 2.824219 8.5 2.054688 17.78125-2.125 25.703125v.042969c-4.367188 8.3125-11.894531 14.519531-20.886719 17.226563zm0 0"/><path d="m190.953125 512.210938c3.453125-.015626 6.554687-2.109376 7.863281-5.300782 1.308594-3.195312.5625-6.863281-1.886718-9.292968-50.492188-51.152344-115.980469-84.867188-186.949219-96.246094-3.054688-.527344-6.148438.644531-8.09375 3.054687-1.9414065 2.414063-2.425781 5.6875-1.261719 8.558594s3.789062 4.886719 6.863281 5.265625c67.390625 10.828125 129.570313 42.875 177.492188 91.476562 1.589843 1.578126 3.734375 2.472657 5.972656 2.484376zm0 0"/><path d="m241.632812 2.710938c-3.328124 3.332031-3.328124 8.734374 0 12.066406l8.535157 8.53125c2.140625 2.21875 5.316406 3.109375 8.296875 2.328125 2.984375-.78125 5.316406-3.109375 6.09375-6.09375.78125-2.984375-.105469-6.15625-2.324219-8.300781l-8.535156-8.53125c-3.332031-3.332032-8.734375-3.332032-12.066407 0zm0 0"/><path d="m198.96875 2.710938c-3.332031 3.332031-3.332031 8.734374 0 12.066406l25.597656 25.597656c3.347656 3.234375 8.671875 3.1875 11.964844-.101562 3.289062-3.292969 3.335938-8.613282.101562-11.964844l-25.597656-25.597656c-3.332031-3.332032-8.734375-3.332032-12.066406 0zm0 0"/></svg>