<svg aria-hidden="true" style="position: absolute; width: 0; height: 0; overflow: hidden;" version="1.1" xmlns="http://www.w3.org/2000/svg" xmlns:xlink="http://www.w3.org/1999/xlink">
<defs>
<symbol id="icon-credit" viewBox="0 0 20 20">
<title>credit</title>
<path d="M11 16.755v2.245h-2v-2.143c-1.712-0.1-3.066-0.589-4.241-1.797l1.718-1.74c0.859 0.87 2.023 1.16 3.282 1.16 1.565 0 2.405-0.599 2.405-1.702 0-0.483-0.133-0.889-0.42-1.16-0.267-0.251-0.572-0.387-1.202-0.483l-1.642-0.232c-1.164-0.174-2.022-0.541-2.634-1.141-0.648-0.657-0.973-1.546-0.973-2.707 0-2.155 1.382-3.743 3.707-4.1v-1.955h2v1.932c1.382 0.145 2.465 0.62 3.415 1.551l-1.679 1.682c-0.859-0.832-1.889-0.947-2.787-0.947-1.412 0-2.099 0.792-2.099 1.74 0 0.348 0.115 0.716 0.401 0.986 0.267 0.252 0.706 0.464 1.26 0.541l1.602 0.232c1.241 0.174 2.023 0.522 2.596 1.063 0.726 0.696 1.050 1.702 1.050 2.92 0 2.25-1.567 3.662-3.759 4.055z"></path>
</symbol>
<symbol id="icon-car" viewBox="0 0 32 32">
<title>car</title>
<path d="M30.448 22.91c-0.004-0.004-0.005-0.011-0.010-0.015s-0.011-0.006-0.015-0.010c-2.068-2.061-5.41-2.071-7.489-0.021v-7.931c0-0.294-0.239-0.533-0.533-0.533s-0.533 0.239-0.533 0.533v0.533h-1.286l-2.447-4.405v-6.795c0.294 0 0.533-0.239 0.533-0.533s-0.239-0.533-0.533-0.533h-0.043c-0.207-1.444-1.236-2.635-2.635-3.047s-2.91 0.028-3.868 1.127c-0.287-0.14-0.602-0.213-0.921-0.213-0.972 0.001-1.822 0.659-2.066 1.6-0.529-0.012-1.048 0.134-1.493 0.419-0.564-0.848-1.649-1.18-2.591-0.791s-1.477 1.389-1.278 2.388c0.199 0.999 1.076 1.718 2.095 1.717 0.243 0 0.484-0.042 0.713-0.124 0.434 1.153 1.603 1.857 2.826 1.702s2.179-1.128 2.312-2.353c0.579 0.972 1.564 1.633 2.683 1.8v3.637l-2.447 4.405h-1.286v-0.533c0-0.294-0.239-0.533-0.533-0.533s-0.533 0.239-0.533 0.533v7.931c-2.080-2.050-5.423-2.040-7.491 0.021-0.004 0.004-0.010 0.005-0.014 0.010s-0.005 0.010-0.009 0.014c-2.071 2.077-2.071 5.438 0 7.515 0.004 0.004 0.005 0.010 0.009 0.014s0.010 0.005 0.014 0.010c2.077 2.070 5.437 2.070 7.515 0 0.004-0.004 0.010-0.005 0.014-0.010s0.005-0.010 0.009-0.014c0.865-0.867 1.404-2.006 1.526-3.224h10.72c0.122 1.218 0.661 2.357 1.526 3.224 0.004 0.004 0.005 0.010 0.009 0.014s0.010 0.005 0.014 0.010c2.077 2.070 5.437 2.070 7.514 0 0.004-0.004 0.011-0.005 0.015-0.010s0.006-0.011 0.010-0.015c2.069-2.077 2.069-5.436 0-7.512zM30.033 29.28l-1.926-1.928c0.023-0.050 0.044-0.1 0.062-0.152h2.728c-0.095 0.759-0.394 1.477-0.863 2.080zM22.437 27.2h2.728c0.018 0.052 0.039 0.103 0.062 0.152l-1.927 1.928c-0.47-0.603-0.768-1.322-0.863-2.080zM8.7 29.28l-1.926-1.928c0.023-0.050 0.044-0.1 0.062-0.152h2.728c-0.095 0.759-0.394 1.477-0.864 2.080zM1.104 27.2h2.728c0.018 0.052 0.039 0.103 0.062 0.152l-1.927 1.928c-0.47-0.603-0.768-1.322-0.863-2.080zM1.967 24.053l1.927 1.928c-0.023 0.049-0.044 0.1-0.062 0.152h-2.728c0.095-0.758 0.393-1.477 0.863-2.080zM26.667 27.2c-0.294 0-0.533-0.239-0.533-0.533s0.239-0.533 0.533-0.533c0.295 0 0.533 0.239 0.533 0.533s-0.239 0.533-0.533 0.533zM27.352 25.227c-0.050-0.023-0.1-0.044-0.152-0.062v-2.728c0.759 0.095 1.477 0.394 2.080 0.863zM26.133 25.165c-0.052 0.018-0.103 0.039-0.152 0.063l-1.928-1.927c0.603-0.47 1.322-0.768 2.080-0.863zM25.227 25.981c-0.024 0.049-0.044 0.1-0.062 0.152h-2.727c0.095-0.758 0.394-1.477 0.863-2.080zM20.8 21.867h1.067v2.133h-1.067zM21.867 20.8h-1.067v-1.6h1.067zM19.734 24h-7.467v-7.466h7.467zM10.134 24v-2.133h1.067v2.133zM11.2 20.8h-1.067v-1.6h1.067zM9.564 26.133h-2.728c-0.018-0.052-0.039-0.103-0.063-0.152l1.927-1.928c0.47 0.603 0.768 1.322 0.864 2.080zM5.334 27.2c-0.294 0-0.533-0.239-0.533-0.533s0.239-0.533 0.533-0.533c0.295 0 0.533 0.239 0.533 0.533s-0.239 0.533-0.533 0.533zM6.019 25.227c-0.049-0.023-0.1-0.044-0.152-0.062v-2.728c0.759 0.095 1.477 0.394 2.080 0.863zM4.8 25.165c-0.052 0.018-0.103 0.039-0.152 0.063l-1.928-1.927c0.603-0.47 1.322-0.768 2.080-0.863zM4.648 28.107c0.050 0.023 0.1 0.044 0.152 0.062v2.728c-0.759-0.095-1.477-0.393-2.080-0.863zM5.867 28.169c0.052-0.018 0.103-0.039 0.152-0.063l1.928 1.927c-0.603 0.47-1.321 0.768-2.080 0.863zM10.421 25.067h11.158c-0.109 0.347-0.183 0.705-0.218 1.067h-10.72c-0.036-0.362-0.11-0.719-0.22-1.067zM25.981 28.107c0.050 0.024 0.1 0.044 0.152 0.063v2.728c-0.759-0.095-1.477-0.394-2.080-0.863zM27.2 28.169c0.052-0.018 0.103-0.039 0.152-0.063l1.928 1.927c-0.603 0.47-1.322 0.768-2.080 0.863zM28.169 26.133c-0.018-0.052-0.039-0.103-0.062-0.152l1.927-1.928c0.47 0.603 0.768 1.322 0.863 2.080zM21.867 18.133h-1.067v-1.6h1.067zM14.934 6.934v-2.666h2.133v6.4h-2.133zM11.846 4.497c-0.044-0.148-0.151-0.27-0.292-0.333s-0.303-0.063-0.443 0.002c-0.129 0.061-0.269 0.095-0.411 0.101-0.018 0-0.072-0.009-0.090-0.009-0.17-0.010-0.333 0.065-0.437 0.199-0.106 0.132-0.143 0.306-0.1 0.47 0.038 0.132 0.058 0.269 0.060 0.407 0.006 0.869-0.686 1.583-1.555 1.605s-1.596-0.656-1.635-1.524c-0.011-0.206-0.139-0.388-0.331-0.466-0.064-0.026-0.133-0.039-0.202-0.039-0.134 0-0.263 0.050-0.361 0.141-0.358 0.327-0.891 0.37-1.297 0.105s-0.582-0.77-0.427-1.229 0.599-0.756 1.083-0.722c0.483 0.034 0.883 0.39 0.971 0.867 0.038 0.203 0.189 0.366 0.389 0.418s0.412-0.015 0.544-0.174c0.386-0.488 1.028-0.694 1.625-0.521 0.164 0.043 0.339 0.006 0.472-0.101s0.206-0.27 0.198-0.44c0.001-0.018-0.001-0.036-0.008-0.053 0-0.589 0.478-1.067 1.067-1.067 0.256 0.002 0.502 0.096 0.693 0.267 0.117 0.102 0.272 0.149 0.426 0.127s0.29-0.109 0.374-0.239c0.588-0.911 1.668-1.375 2.733-1.175s1.903 1.025 2.12 2.087h-3.146c-0.295 0-0.533 0.239-0.533 0.533s0.239 0.533 0.533 0.533v2.080c-0.961-0.201-1.736-0.91-2.021-1.85zM14.714 11.733h2.573l2.073 3.733h-6.72zM11.2 16.533v1.6h-1.067v-1.6z"></path>
<path d="M1.6 3.2c0.884 0 1.6-0.716 1.6-1.6s-0.716-1.6-1.6-1.6c-0.884 0-1.6 0.716-1.6 1.6s0.716 1.6 1.6 1.6zM1.6 1.067c0.295 0 0.533 0.239 0.533 0.533s-0.239 0.533-0.533 0.533c-0.294 0-0.533-0.239-0.533-0.533s0.239-0.533 0.533-0.533z"></path>
<path d="M16 22.933c1.079 0 2.051-0.65 2.464-1.646s0.185-2.143-0.578-2.906-1.91-0.991-2.906-0.578c-0.997 0.413-1.646 1.385-1.646 2.464 0.002 1.472 1.195 2.665 2.667 2.666zM16 18.667c0.884 0 1.6 0.716 1.6 1.6s-0.716 1.6-1.6 1.6c-0.884 0-1.6-0.716-1.6-1.6s0.716-1.6 1.6-1.6z"></path>
<path d="M16.157 21.177c0.209 0.202 0.542 0.199 0.748-0.007s0.209-0.538 0.007-0.748l-0.533-0.533c-0.209-0.202-0.542-0.199-0.748 0.007s-0.209 0.538-0.007 0.748z"></path>
<path d="M5.867 14.933h-2.667c-0.294 0-0.533 0.239-0.533 0.533s0.239 0.533 0.533 0.533h2.667c0.294 0 0.533-0.239 0.533-0.533s-0.239-0.533-0.533-0.533z"></path>
<path d="M4.267 17.6c0 0.294 0.239 0.533 0.533 0.533h2.666c0.295 0 0.533-0.239 0.533-0.533s-0.239-0.533-0.533-0.533h-2.666c-0.295 0-0.533 0.239-0.533 0.533z"></path>
</symbol>
<symbol id="icon-creativity" viewBox="0 0 32 32">
<title>creativity</title>
<path d="M10.966 6.366c-0.976 0.369-1.675 1.305-1.675 2.408 0 0.425 0.113 0.82 0.296 1.174-0.774 0.298-1.328 1.044-1.328 1.922s0.554 1.625 1.328 1.923c-0.183 0.354-0.296 0.749-0.296 1.174 0 1.104 0.699 2.040 1.675 2.408-0.077 0.216-0.127 0.446-0.127 0.689 0 1.139 0.926 2.064 2.064 2.064 0.257 0 0.501-0.053 0.728-0.139 0.334 0.69 1.036 1.171 1.853 1.171 1.139 0 2.064-0.926 2.064-2.064v-14.451c0-1.138-0.926-2.064-2.064-2.064-0.817 0-1.518 0.481-1.853 1.171-0.227-0.086-0.471-0.139-0.728-0.139-1.139 0-2.064 0.926-2.064 2.064 0 0.243 0.050 0.472 0.127 0.689zM12.904 4.646c0.569 0 1.032 0.463 1.032 1.032h1.032c0-0.496-0.183-0.946-0.476-1.302 0.12-0.438 0.517-0.762 0.992-0.762 0.569 0 1.032 0.463 1.032 1.032v14.451c0 0.569-0.463 1.032-1.032 1.032-0.475 0-0.872-0.325-0.992-0.762 0.293-0.356 0.476-0.806 0.476-1.302h-1.032c0 0.569-0.463 1.032-1.032 1.032s-1.032-0.463-1.032-1.032c0-0.569 0.463-1.032 1.032-1.032v-1.032c-0.503 0-0.958 0.188-1.316 0.487-0.719-0.134-1.265-0.763-1.265-1.52 0-0.854 0.695-1.548 1.548-1.548s1.548 0.695 1.548 1.548h1.032c0-1.423-1.158-2.581-2.581-2.581-0.583 0-1.116 0.202-1.548 0.53v-0.014c-0.569 0-1.032-0.463-1.032-1.032s0.463-1.032 1.032-1.032v-0.013c0.432 0.328 0.965 0.529 1.548 0.529 1.423 0 2.581-1.158 2.581-2.581h-1.032c0 0.854-0.695 1.548-1.548 1.548s-1.548-0.695-1.548-1.548c0-0.757 0.546-1.386 1.265-1.519 0.358 0.299 0.813 0.487 1.316 0.487v-1.032c-0.569 0-1.032-0.463-1.032-1.032s0.463-1.032 1.032-1.032z"></path>
<path d="M23.226 3.613c-0.257 0-0.5 0.053-0.728 0.139-0.335-0.69-1.036-1.171-1.853-1.171-1.139 0-2.064 0.926-2.064 2.064v14.451c0 1.139 0.926 2.064 2.064 2.064 0.817 0 1.518-0.481 1.853-1.171 0.227 0.086 0.471 0.139 0.728 0.139 1.139 0 2.064-0.926 2.064-2.064 0-0.242-0.049-0.472-0.127-0.689 0.976-0.368 1.675-1.305 1.675-2.408 0-0.425-0.113-0.82-0.296-1.174 0.774-0.298 1.328-1.044 1.328-1.923s-0.554-1.625-1.328-1.922c0.183-0.354 0.296-0.749 0.296-1.174 0-1.103-0.699-2.040-1.675-2.408 0.078-0.216 0.127-0.446 0.127-0.689 0-1.138-0.926-2.064-2.064-2.064zM25.807 8.775c0 0.854-0.695 1.548-1.548 1.548s-1.548-0.695-1.548-1.548h-1.032c0 1.423 1.158 2.581 2.581 2.581 0.583 0 1.116-0.202 1.548-0.529v0.013c0.569 0 1.032 0.463 1.032 1.032s-0.463 1.032-1.032 1.032v0.014c-0.432-0.328-0.965-0.53-1.548-0.53-1.423 0-2.581 1.158-2.581 2.581h1.032c0-0.854 0.695-1.548 1.548-1.548s1.548 0.695 1.548 1.548c0 0.757-0.546 1.386-1.264 1.52-0.358-0.299-0.814-0.487-1.316-0.487v1.032c0.569 0 1.032 0.463 1.032 1.032s-0.463 1.032-1.032 1.032c-0.569 0-1.032-0.463-1.032-1.032h-1.032c0 0.496 0.183 0.946 0.476 1.302-0.12 0.438-0.517 0.762-0.992 0.762-0.569 0-1.032-0.463-1.032-1.032v-14.451c0-0.569 0.463-1.032 1.032-1.032 0.475 0 0.872 0.325 0.992 0.762-0.293 0.356-0.476 0.806-0.476 1.302h1.032c0-0.569 0.463-1.032 1.032-1.032s1.032 0.463 1.032 1.032c0 0.569-0.463 1.032-1.032 1.032v1.032c0.503 0 0.958-0.188 1.316-0.487 0.718 0.134 1.264 0.763 1.264 1.519z"></path>
<path d="M26.192 3.219c-2.412-2.267-5.57-3.403-8.885-3.195l0.064 1.030c3.029-0.188 5.912 0.848 8.115 2.917 2.204 2.071 3.418 4.877 3.418 7.9 0 3.643-1.816 7.021-4.857 9.036-1.049 0.696-1.843 1.688-2.332 2.834h-7.32c-0.496-1.155-1.293-2.154-2.344-2.856-3.135-2.095-4.936-5.594-4.818-9.36l-1.032-0.032c-0.129 4.125 1.844 7.957 5.277 10.25 0.758 0.507 1.363 1.197 1.785 1.998h-1.391v1.032h1.803c0.1 0.334 0.18 0.677 0.221 1.032h-0.991v1.032h1.032v1.548c0 0.286 0.231 0.516 0.516 0.516h0.516c0 1.708 1.389 3.097 3.097 3.097s3.097-1.389 3.097-3.097h0.516c0.285 0 0.516-0.231 0.516-0.516v-1.548h1.032v-1.032h-0.996c0.037-0.355 0.109-0.698 0.207-1.032h1.821v-1.032h-1.414c0.416-0.793 1.018-1.474 1.772-1.974 3.33-2.209 5.319-5.908 5.319-9.897 0-3.263-1.365-6.417-3.743-8.652zM18.065 30.968c-1.139 0-2.064-0.926-2.064-2.064h4.129c0 1.139-0.926 2.064-2.064 2.064zM21.161 27.871h-6.193v-1.032h6.193zM21.198 25.806h-6.272c-0.035-0.351-0.090-0.697-0.175-1.032h6.607c-0.082 0.335-0.13 0.682-0.161 1.032z"></path>
<path d="M5.678 3.613c1.139 0 2.064 0.926 2.064 2.064 0 0.286 0.231 0.516 0.516 0.516s0.516-0.231 0.516-0.516c0-1.138 0.926-2.064 2.064-2.064 0.285 0 0.516-0.231 0.516-0.516s-0.231-0.516-0.516-0.516c-1.139 0-2.064-0.926-2.064-2.064 0-0.285-0.231-0.516-0.516-0.516s-0.516 0.231-0.516 0.516c0 1.139-0.926 2.064-2.064 2.064-0.285 0-0.516 0.231-0.516 0.516s0.231 0.516 0.516 0.516zM8.258 2.227c0.229 0.345 0.526 0.642 0.871 0.871-0.345 0.229-0.641 0.526-0.871 0.871-0.229-0.345-0.526-0.641-0.871-0.871 0.345-0.229 0.642-0.526 0.871-0.871z"></path>
<path d="M7.742 8.775c0.285 0 0.516-0.231 0.516-0.516s-0.231-0.516-0.516-0.516c-1.139 0-2.064-0.926-2.064-2.064 0-0.285-0.231-0.516-0.516-0.516s-0.516 0.231-0.516 0.516c0 1.139-0.926 2.064-2.064 2.064-0.285 0-0.516 0.231-0.516 0.516s0.231 0.516 0.516 0.516c1.139 0 2.064 0.926 2.064 2.064 0 0.286 0.231 0.516 0.516 0.516s0.516-0.231 0.516-0.516c0-1.138 0.926-2.064 2.064-2.064zM5.162 9.129c-0.229-0.345-0.526-0.641-0.871-0.871 0.345-0.229 0.641-0.526 0.871-0.871 0.229 0.345 0.526 0.641 0.871 0.871-0.345 0.229-0.641 0.526-0.871 0.871z"></path>
</symbol>
<symbol id="icon-adventurer" viewBox="0 0 32 32">
<title>adventurer</title>
<path d="M31.598 16.964l-2.481 1.045c-0.049 0.021-0.094 0.049-0.135 0.083l-3.35 2.841-0.059-0.143c-0.324-0.777-1.193-1.171-1.991-0.904l-0.366 0.123-0.271-0.274-1.277-2.128 1.471-6.713 0.759-0.38c0.467-0.235 0.748-0.726 0.715-1.248s-0.373-0.974-0.866-1.149l0.314-1.431c0.052-0.278-0.126-0.547-0.402-0.607s-0.55 0.11-0.619 0.384l-0.384 1.752-4.026 2.016-1.515-1.299 0.023-0.134c0.087-0.532-0.012-1.078-0.282-1.545 0.896-0.062 1.712-0.541 2.202-1.293s0.599-1.692 0.294-2.537l1.84-0.919c0.259-0.129 0.366-0.443 0.237-0.703s-0.443-0.365-0.703-0.237l-1.901 0.95c-1.006-1.182-2.769-1.35-3.981-0.38s-1.432 2.728-0.497 3.968c-0.155 0.031-0.305 0.078-0.45 0.14l0.074-0.39c0.042-0.224-0.008-0.457-0.141-0.643s-0.335-0.311-0.561-0.345l-2.424-0.359c-0.716-0.11-1.387 0.374-1.508 1.088l-0.61 3.46-0.668-0.143c-0.288-0.062-0.59-0.005-0.836 0.157s-0.418 0.417-0.475 0.706l-0.504 2.555c-0.058 0.294 0.007 0.599 0.179 0.845s0.437 0.41 0.733 0.456l1.278 0.196 2.944 0.395-0.028 0.084c-0.246 0.729-0.056 1.535 0.49 2.078 0.017 0.017 0.037 0.029 0.052 0.045l1.229 3.479-2.548 3.873-1.312 1.555c-0.103 0.122-0.145 0.284-0.113 0.441s0.133 0.29 0.275 0.362l2.525 1.287-1.127 0.679-10.825 1.358 0.13 1.037 10.935-1.371c0.073-0.009 0.143-0.033 0.205-0.072l6.98-4.219 7.673-2.827c0.057-0.021 0.11-0.053 0.157-0.092l3.512-2.978 2.408-1.013zM23.239 21.102l0.679-0.228c0.277-0.092 0.579 0.044 0.692 0.314l0.070 0.169-2.649 0.976-0.424-1.034 0.854-0.569 0.241 0.245c0.14 0.141 0.347 0.191 0.536 0.128zM13.194 15.931c-0.3-0.027-0.571-0.19-0.735-0.442s-0.205-0.566-0.11-0.851l0.108-0.326h3.207l3.389 0.969 1.506 2.508-0.273 1.246-1.492-2.387c-0.086-0.139-0.233-0.23-0.396-0.246zM15.298 13.266h-2.602l0.242-1.472 0.171-0.015c0.877-0.080 1.735-0.307 2.537-0.67l0.024 0.021zM13.115 10.725l0.308-1.87c0.060 0.272 0.207 0.518 0.418 0.7l0.919 0.791c-0.531 0.194-1.084 0.321-1.646 0.379zM21.049 22.696l-0.54 0.199 0.217-0.989zM21.824 19.901l-0.705 0.47-0.042-0.068 0.264-1.207zM20.884 16.303l-1.042-1.736c-0.068-0.114-0.177-0.197-0.305-0.234l-3.204-0.917 0.261-1.492 0.993 0.854c0.399 0.343 0.966 0.413 1.437 0.177l2.916-1.46zM23.194 9.114c0.062-0.032 0.134-0.037 0.201-0.015s0.119 0.069 0.15 0.131c0.065 0.129 0.013 0.285-0.115 0.35l-4.877 2.442c-0.094 0.045-0.206 0.031-0.286-0.036l-3.743-3.222c-0.080-0.069-0.11-0.179-0.077-0.28s0.123-0.171 0.228-0.179h0.019c0.063 0 0.123 0.022 0.17 0.063l3.612 3.108zM18.48 4.385c0.003 0.785-0.497 1.483-1.24 1.734s-1.564-0.002-2.037-0.627l3.199-1.598c0.049 0.159 0.075 0.325 0.078 0.492zM16.651 2.557c0.439 0.002 0.861 0.162 1.19 0.452l-3.007 1.501c0-0.042-0.012-0.082-0.012-0.124 0.001-1.009 0.819-1.827 1.828-1.829zM15.040 7.116c0.49 0.078 0.891 0.433 1.027 0.91l-0.522-0.449c-0.533-0.461-1.337-0.412-1.811 0.109 0.282-0.434 0.796-0.658 1.306-0.57zM7.274 12.531l0.504-2.555-0.513-0.101 0.579 0.057 0.704 0.151-0.463 2.632-0.765-0.118zM10.369 5.775c0.029-0.153 0.172-0.256 0.326-0.235l2.212 0.328-0.402 2.133v0.011l-0.858 5.192-2.527-0.34zM14.202 19.805l-0.997-2.825 1.866 0.17 0.426 2.782-3.043 4.446-0.721-0.445 2.413-3.667c0.090-0.136 0.111-0.307 0.057-0.461zM13.005 26.79l-2.516-1.282 0.619-0.731 1.221 0.753c0.041 0.025 0.086 0.044 0.132 0.057s0.094 0.020 0.142 0.020h0.060c0.475 0.001 0.89 0.319 1.015 0.777l-0.161 0.097zM17.842 23.877c-0.031 0.011-0.061 0.026-0.090 0.043l-3.164 1.913c-0.214-0.497-0.611-0.891-1.11-1.102l2.998-4.38c0.075-0.109 0.106-0.243 0.085-0.374l-0.418-2.731 1.902 0.173 1.922 3.074-0.62 2.829z"></path>
</symbol>
<symbol id="icon-axe" viewBox="0 0 32 32">
<title>axe</title>
<path d="M30.942 6.673l-8.037-1.758c-0.231-0.054-0.45-0.151-0.647-0.284l-0.197-0.133 0.388-0.573c0.255-0.376 0.351-0.838 0.265-1.285s-0.345-0.841-0.721-1.096l-1.628-1.104c-0.881-0.598-2.081-0.37-2.681 0.51l-0.269 0.397-0.947-0.642c-0.622-0.42-1.467-0.258-1.889 0.362l-2.235 3.296c-0.421 0.622-0.259 1.468 0.362 1.891l0.717 0.486c0.060 0.042 0.117 0.089 0.171 0.139-0.297 1.809-1.163 4.923-3.686 7.202-3.19 2.881-7.873 10.873-9.741 14.179-0.425 0.767-0.024 1.841 0.935 2.5 1.112 0.761 1.998 1.135 2.693 1.135 0.108 0 0.216-0.009 0.322-0.029 0.36-0.064 0.679-0.272 0.883-0.576 0.413-0.726 0.588-1.564 0.5-2.395-0.103-1.121 0.175-2.244 0.789-3.188 1.337-1.668 2.761-3.265 4.266-4.782 2.982-3.166 6.361-6.755 7.417-8.767 0.352-0.666 0.66-1.272 0.933-1.818 1.154 0.332 1.33 1.139 1.569 2.839 0.058 0.409 0.119 0.842 0.205 1.292 0.361 1.876 1.955 3.113 2.874 3.684 0.256 0.161 0.552 0.247 0.854 0.248 0.194-0 0.386-0.036 0.567-0.106 0.929-0.358 2.772-1.378 4.679-4.189 1.238-1.791 2.039-3.847 2.34-6.003 0.053-0.672-0.396-1.282-1.054-1.431zM18.568 1.548c0.269-0.393 0.806-0.494 1.199-0.226l1.628 1.104c0.142 0.096 0.24 0.245 0.273 0.414s-0.004 0.343-0.1 0.485l-0.388 0.573-2.88-1.953 0.269-0.397zM17.031 11.66c-0.989 1.884-4.461 5.57-7.25 8.533-1.548 1.555-3.008 3.196-4.372 4.914-0.735 1.121-1.078 2.454-0.973 3.79 0.078 0.616-0.032 1.24-0.316 1.792-0.045 0.070-0.117 0.116-0.199 0.127-0.197 0.037-0.81 0.022-2.213-0.937-0.519-0.357-0.736-0.867-0.607-1.099 1.436-2.541 6.365-11.055 9.525-13.909 1.943-1.839 3.28-4.227 3.831-6.846l0.144 0.203c0.752 1.059 1.91 1.758 3.197 1.932l0.006 0.001c-0.232 0.461-0.487 0.958-0.772 1.498zM22.008 15.057c-0.127-0.249-0.221-0.514-0.278-0.788-0.083-0.432-0.141-0.847-0.196-1.239-0.24-1.71-0.468-3.325-2.633-3.798l-0.963-0.129c-0.993-0.134-1.887-0.674-2.468-1.491l-0.784-1.106c-0.025-0.035-0.057-0.064-0.083-0.098-0.016-0.022-0.034-0.043-0.053-0.063-0.152-0.187-0.329-0.352-0.526-0.489l-0.717-0.487c-0.065-0.044-0.109-0.112-0.124-0.188s0.002-0.156 0.046-0.221l2.235-3.296c0.091-0.134 0.274-0.169 0.408-0.078h-0l1.377 0.934c0.004 0.003 0.006 0.007 0.010 0.010s0.009 0.003 0.013 0.005l3.74 2.537c0.004 0.003 0.006 0.007 0.010 0.010 0.005 0.004 0.012 0.005 0.017 0.008l0.622 0.422c0.306 0.208 0.648 0.358 1.009 0.442l4.396 0.961c-0.236 1.398-1.202 4.583-5.055 8.141zM28.773 13.508c-1.744 2.571-3.367 3.479-4.179 3.792-0.158 0.059-0.334 0.039-0.475-0.052-0.566-0.353-1.076-0.787-1.515-1.289 4.093-3.726 5.21-7.090 5.504-8.814l2.598 0.568c0.142 0.033 0.238 0.164 0.227 0.309-0.291 1.97-1.029 3.846-2.159 5.486z"></path>
</symbol>
<symbol id="icon-map" viewBox="0 0 32 32">
<title>map</title>
<path d="M31.227 5.099l-5.12-3.090c-0.508-0.308-1.145-0.308-1.653 0l-5.084 3.068c-0.169 0.103-0.382 0.103-0.551 0l-5.084-3.068c-0.508-0.308-1.145-0.308-1.653 0l-5.084 3.068c-0.169 0.103-0.382 0.103-0.551 0l-4.018-2.425c-0.493-0.302-1.112-0.311-1.613-0.023-0.505 0.281-0.817 0.815-0.813 1.393v21.508c0.002 0.56 0.295 1.079 0.773 1.37l5.12 3.090c0.508 0.307 1.145 0.307 1.653 0l5.084-3.068c0.169-0.103 0.382-0.103 0.551 0l5.084 3.068c0.508 0.308 1.145 0.308 1.653 0l5.085-3.068c0.169-0.102 0.382-0.102 0.551 0.001l4.018 2.425c0.494 0.298 1.111 0.307 1.613 0.023s0.813-0.816 0.813-1.393v-21.508c-0.002-0.56-0.295-1.079-0.773-1.37zM30.933 16.417c-0.051-0.057-0.099-0.116-0.153-0.17-1.414-1.39-3.689-1.353-5.52-1.322-0.252 0.004-0.495 0.008-0.727 0.008-2.192 0-2.663-1.655-2.683-1.733-0.072-0.286-0.363-0.458-0.648-0.386s-0.458 0.363-0.386 0.648c0.22 0.878 1.279 2.537 3.717 2.537 0.237 0 0.486-0.004 0.745-0.008 1.629-0.029 3.659-0.061 4.754 1.016 0.606 0.596 0.901 1.488 0.901 2.726v8.244c0 0.192-0.104 0.37-0.271 0.464s-0.373 0.092-0.538-0.008l-4.018-2.424c-0.508-0.308-1.145-0.308-1.653 0l-5.084 3.068c-0.169 0.103-0.382 0.103-0.551 0l-0.481-0.29c1.023-3.034-0.853-4.602-0.935-4.669-0.229-0.185-0.565-0.149-0.75 0.081s-0.149 0.565 0.080 0.75c0.014 0.011 1.299 1.084 0.669 3.274l-3.667-2.213c-0.508-0.308-1.145-0.308-1.653 0l-5.084 3.068c-0.169 0.103-0.382 0.103-0.551 0l-5.12-3.090c-0.159-0.097-0.257-0.27-0.257-0.456v-12.697c0.958 0.084 1.888 0.368 2.728 0.835-0.039 0.242-0.060 0.486-0.062 0.731 0 2.452 3.915 8.19 4.361 8.836 0.032 0.044 0.070 0.084 0.114 0.116 0.009 0.007 0.019 0.013 0.029 0.020 0.052 0.036 0.11 0.063 0.171 0.079l0.002 0.001c0 0 0.205 0.048 0.555 0.108 0.030 0.005 0.060 0.007 0.090 0.007 0.26-0 0.482-0.188 0.525-0.444 0.030-0.189-0.045-0.38-0.196-0.498 0.947-1.414 1.819-2.876 2.612-4.382 0.992 0.329 1.862 0.951 2.492 1.785 0.105 0.16 0.288 0.252 0.479 0.24s0.361-0.125 0.446-0.297 0.070-0.376-0.037-0.535c-0.731-0.995-1.745-1.747-2.91-2.157 0.471-0.895 0.765-1.873 0.866-2.88 0.001-2.299-1.629-4.275-3.885-4.713s-4.507 0.788-5.364 2.921c-0.942-0.473-1.966-0.76-3.017-0.845v-7.74c-0.002-0.193 0.102-0.371 0.271-0.465 0.081-0.045 0.173-0.070 0.266-0.071 0.096 0 0.191 0.028 0.272 0.079l4.018 2.424c0.508 0.307 1.145 0.307 1.653 0l5.084-3.068c0.169-0.103 0.382-0.103 0.551 0l2.839 1.713c-0.193 0.417-1.079 2.527 0.135 3.741 0.209 0.206 0.544 0.204 0.751-0.003s0.208-0.543 0.003-0.751c-0.637-0.637-0.156-1.979 0.032-2.431l1.324 0.799c0.508 0.307 1.145 0.307 1.653 0l5.085-3.068c0.169-0.102 0.382-0.102 0.551 0.001l5.12 3.090c0.16 0.097 0.257 0.27 0.258 0.456v9.948zM4.8 14.4c0-2.062 1.671-3.733 3.733-3.733s3.733 1.671 3.733 3.733c0 1.6-2.391 5.549-3.733 7.58-1.342-2.030-3.733-5.979-3.733-7.58z"></path>
<path d="M11.2 14.4c0-1.473-1.194-2.667-2.667-2.667s-2.667 1.194-2.667 2.667 1.194 2.667 2.667 2.667c1.472-0.002 2.665-1.195 2.667-2.667zM6.933 14.4c0-0.884 0.716-1.6 1.6-1.6s1.6 0.716 1.6 1.6-0.716 1.6-1.6 1.6c-0.883-0.001-1.599-0.717-1.6-1.6z"></path>
<path d="M27.421 9.663v0l-2.088-0.954 0.954-2.088c0.080-0.173 0.061-0.377-0.049-0.532s-0.296-0.241-0.486-0.222-0.356 0.137-0.434 0.312l-0.954 2.088-2.088-0.954c-0.173-0.080-0.376-0.061-0.532 0.050s-0.24 0.296-0.222 0.486c0.018 0.19 0.137 0.356 0.31 0.434l1.643 0.751c-0.004 0.018-0.007 0.035-0.009 0.053 0.006 0.202 0.126 0.383 0.309 0.467l-0.809 1.771c-0.079 0.173-0.060 0.376 0.051 0.531s0.296 0.24 0.485 0.221 0.355-0.136 0.434-0.309l0.954-2.088 2.088 0.954c0.173 0.079 0.375 0.060 0.531-0.051s0.239-0.295 0.221-0.485c-0.018-0.19-0.136-0.355-0.309-0.434z"></path>
<path d="M17.534 19.283c-0.284-0.078-0.578 0.088-0.656 0.372-0.084 0.31-0.206 0.609-0.362 0.89-0.069 0.123-0.087 0.269-0.049 0.405s0.129 0.252 0.252 0.321c0.080 0.045 0.169 0.069 0.261 0.069 0.193 0 0.371-0.104 0.465-0.272 0.199-0.356 0.353-0.735 0.46-1.129 0.038-0.136 0.020-0.282-0.050-0.405s-0.186-0.213-0.322-0.251z"></path>
<path d="M18.001 16.475c-0.037-0.292-0.302-0.499-0.593-0.466-0.292 0.036-0.501 0.301-0.465 0.594 0.045 0.369 0.085 0.724 0.107 1.060 0.018 0.28 0.251 0.498 0.532 0.498 0.012 0 0.024-0.001 0.035-0.001 0.294-0.019 0.517-0.273 0.497-0.567-0.023-0.354-0.066-0.73-0.113-1.118z"></path>
<path d="M15.189 21.882c-0.284 0.167-0.585 0.305-0.897 0.412-0.278 0.097-0.425 0.401-0.328 0.68s0.402 0.425 0.68 0.328c0.378-0.131 0.743-0.299 1.088-0.502 0.253-0.15 0.337-0.477 0.187-0.731s-0.477-0.337-0.731-0.187z"></path>
<path d="M17.265 14.894h0.016c0.294-0.009 0.526-0.255 0.517-0.55-0.003-0.097-0.005-0.194-0.005-0.291-0.001-0.243 0.011-0.487 0.036-0.729 0.030-0.293-0.182-0.554-0.474-0.585s-0.555 0.18-0.587 0.473c-0.029 0.28-0.043 0.561-0.042 0.842 0 0.107 0.002 0.216 0.005 0.323 0.009 0.288 0.245 0.517 0.533 0.517z"></path>
<path d="M21.706 8.741v0c-0.38 0.062-0.755 0.145-1.125 0.248-0.256 0.072-0.42 0.323-0.383 0.586s0.262 0.46 0.528 0.46c0.049 0 0.098-0.007 0.146-0.020 0.332-0.092 0.669-0.167 1.009-0.222 0.291-0.048 0.487-0.323 0.439-0.613s-0.323-0.487-0.613-0.439z"></path>
<path d="M18.966 9.944c-0.177-0.071-0.379-0.042-0.529 0.076v0c-0.329 0.256-0.619 0.559-0.86 0.898-0.11 0.156-0.128 0.358-0.048 0.531s0.246 0.29 0.436 0.307 0.374-0.068 0.484-0.224c0.181-0.255 0.399-0.482 0.646-0.673 0.151-0.117 0.227-0.306 0.2-0.495s-0.152-0.349-0.329-0.42z"></path>
<path d="M12.675 22.808c-0.107-0.093-0.248-0.138-0.389-0.126-0.275 0.020-0.546 0.028-0.808 0.028l-0.238-0.003c-0.292 0.001-0.532 0.231-0.543 0.523-0.006 0.295 0.229 0.538 0.523 0.544l0.258 0.003c0.287 0 0.584-0.009 0.885-0.031 0.141-0.010 0.272-0.076 0.365-0.183s0.139-0.246 0.129-0.387c-0.008-0.142-0.074-0.274-0.181-0.367z"></path>
</symbol>
<symbol id="icon-locomotive" viewBox="0 0 32 32">
<title>locomotive</title>
<path d="M16.001 9.067c-1.178 0-2.133 0.955-2.133 2.133s0.955 2.133 2.133 2.133c1.178 0 2.133-0.955 2.133-2.133s-0.955-2.133-2.133-2.133zM16.001 12.267c-0.589 0-1.067-0.478-1.067-1.067s0.478-1.067 1.067-1.067 1.067 0.478 1.067 1.067c0 0.589-0.478 1.067-1.067 1.067z"></path>
<path d="M18.827 6.149c0.331 0.798 1.11 1.318 1.973 1.318 0.094 0 0.188-0.006 0.282-0.019 0.47 0.823 1.424 1.24 2.347 1.025 0.515 0.733 1.366 1.157 2.261 1.126s1.715-0.512 2.178-1.28c0.518 0.252 1.116 0.283 1.657 0.086s0.979-0.606 1.213-1.132c0.768-0.338 1.263-1.1 1.261-1.939 0-1.178-0.955-2.133-2.133-2.133-0.673-0.003-1.307 0.316-1.706 0.858-0.332-1.139-1.374-1.922-2.56-1.924-0.674-0.002-1.323 0.254-1.813 0.716-0.356-0.16-0.751-0.217-1.138-0.164-0.454-0.797-1.364-1.216-2.264-1.043-0.658-1.187-1.995-1.827-3.332-1.597s-2.382 1.282-2.604 2.62h-0.048c-0.295 0-0.533 0.239-0.533 0.533s0.239 0.533 0.533 0.533v3.427c-2.461 0.702-4.183 2.916-4.258 5.474-1.131 0.532-1.919 1.596-2.1 2.832h-0.575c-0.294 0-0.533 0.239-0.533 0.533s0.239 0.533 0.533 0.533h0.533v2.667h-1.6c-0.295 0-0.533 0.239-0.533 0.533s0.239 0.533 0.533 0.533h0.533v1.067h-6.4c-0.294 0-0.533 0.239-0.533 0.533s0.239 0.533 0.533 0.533h6.4v0.098c-0.639 0.223-1.067 0.825-1.067 1.502s0.428 1.279 1.067 1.502v0.632c0 0.884 0.717 1.6 1.6 1.6v0.73c0.005 0.703 0.478 1.316 1.156 1.5 0.327 0.105 0.648 0.229 0.96 0.373l0.098 0.042-0.526 0.789c-0.163 0.245-0.097 0.576 0.148 0.74s0.576 0.097 0.74-0.148l0.651-0.976c0.564 0.204 1.144 0.361 1.734 0.469h0.012c0.823 0.146 1.659 0.218 2.495 0.213 0.836 0.005 1.672-0.067 2.495-0.213h0.012c0.589-0.107 1.168-0.263 1.732-0.466l0.651 0.976c0.106 0.158 0.288 0.249 0.478 0.236s0.359-0.125 0.444-0.296c0.084-0.171 0.071-0.374-0.035-0.532l-0.526-0.789 0.098-0.042c0.312-0.144 0.633-0.268 0.96-0.373 0.68-0.184 1.153-0.799 1.157-1.503v-0.73c0.884 0 1.6-0.716 1.6-1.6v-0.632c0.639-0.223 1.067-0.825 1.067-1.502s-0.428-1.279-1.067-1.502v-0.098h6.4c0.295 0 0.533-0.239 0.533-0.533s-0.239-0.533-0.533-0.533h-6.4v-1.067h0.533c0.295 0 0.533-0.239 0.533-0.533s-0.239-0.533-0.533-0.533h-1.6v-2.667h0.533c0.295 0 0.533-0.239 0.533-0.533s-0.239-0.533-0.533-0.533h-0.575c-0.181-1.236-0.969-2.3-2.1-2.832-0.075-2.558-1.797-4.772-4.258-5.474v-0.769c0.421 0.002 0.838-0.080 1.227-0.242zM17.601 1.067c0.897 0.004 1.696 0.57 1.998 1.415 0.052 0.143 0.161 0.257 0.302 0.314s0.299 0.051 0.435-0.016c0.284-0.139 0.616-0.143 0.904-0.012s0.503 0.384 0.585 0.689c0.040 0.147 0.141 0.27 0.277 0.338s0.295 0.074 0.436 0.017c0.346-0.141 0.74-0.086 1.035 0.143 0.113 0.086 0.256 0.123 0.397 0.103s0.268-0.095 0.353-0.209c0.299-0.407 0.773-0.647 1.278-0.647 0.486-0.002 0.946 0.217 1.25 0.595s0.418 0.875 0.311 1.349c-0.050 0.23 0.057 0.466 0.263 0.58s0.463 0.079 0.631-0.086c0.124-0.119 0.274-0.206 0.439-0.253 0.172-0.051 0.307-0.186 0.358-0.357 0.13-0.452 0.544-0.762 1.014-0.762 0.589 0 1.067 0.478 1.067 1.067 0 0.47-0.311 0.883-0.762 1.013-0.172 0.051-0.306 0.186-0.357 0.357-0.105 0.364-0.397 0.644-0.766 0.733s-0.756-0.026-1.016-0.302c-0.133-0.138-0.329-0.195-0.515-0.149s-0.332 0.19-0.384 0.374c-0.176 0.649-0.74 1.118-1.411 1.171s-1.301-0.323-1.576-0.937c-0.061-0.133-0.173-0.235-0.311-0.283-0.056-0.019-0.115-0.029-0.175-0.029-0.085 0-0.169 0.021-0.245 0.060-0.284 0.148-0.621 0.159-0.914 0.030s-0.512-0.385-0.595-0.695c-0.040-0.147-0.141-0.27-0.277-0.338s-0.295-0.074-0.436-0.017c-0.32 0.128-0.682 0.094-0.972-0.091s-0.473-0.5-0.491-0.844c0.027-0.213-0.077-0.42-0.262-0.528s-0.417-0.093-0.588 0.036c-0.367 0.283-0.817 0.437-1.28 0.438v-1.6c0.295 0 0.533-0.239 0.533-0.533s-0.239-0.533-0.533-0.533h-2.066c0.244-0.941 1.093-1.599 2.066-1.6zM10.219 13.806c0.008 0.045 0.020 0.090 0.028 0.136 0.006 0.029 0.012 0.058 0.019 0.087 0.036 0.169 0.078 0.337 0.129 0.501l0.006 0.020c0.098 0.316 0.223 0.623 0.373 0.918h-1.653c0.138-0.675 0.531-1.27 1.098-1.661zM9.068 16.533h2.407c0.35 0.423 0.757 0.793 1.211 1.101 0.016 0.011 0.031 0.023 0.047 0.034 0.116 0.077 0.236 0.148 0.357 0.218 0.053 0.031 0.107 0.063 0.16 0.091 0.029 0.015 0.056 0.034 0.086 0.050v1.173h-1.159c-0.006-0.019-0.016-0.035-0.023-0.053-0.012-0.029-0.024-0.053-0.037-0.083-0.028-0.060-0.060-0.119-0.095-0.175-0.016-0.026-0.031-0.053-0.048-0.076-0.045-0.064-0.095-0.124-0.149-0.18-0.011-0.011-0.020-0.024-0.031-0.035-0.066-0.065-0.137-0.124-0.213-0.177-0.021-0.015-0.045-0.027-0.067-0.041-0.058-0.036-0.118-0.069-0.18-0.098-0.029-0.013-0.059-0.025-0.090-0.037-0.063-0.024-0.127-0.044-0.192-0.060-0.029-0.007-0.058-0.016-0.088-0.021-0.193-0.040-0.393-0.040-0.587 0-0.030 0.005-0.058 0.014-0.087 0.021-0.065 0.016-0.129 0.036-0.192 0.060-0.031 0.012-0.060 0.023-0.089 0.037-0.062 0.029-0.123 0.062-0.181 0.098-0.022 0.014-0.045 0.026-0.067 0.041-0.076 0.053-0.147 0.113-0.213 0.177-0.011 0.011-0.020 0.024-0.031 0.035-0.054 0.057-0.104 0.117-0.149 0.18-0.018 0.024-0.032 0.050-0.048 0.075-0.035 0.056-0.067 0.115-0.095 0.176-0.013 0.028-0.026 0.053-0.037 0.083-0.008 0.018-0.018 0.035-0.024 0.053h-0.095zM15.067 18.585c0.068 0.011 0.136 0.023 0.205 0.032 0.483 0.067 0.974 0.067 1.457 0 0.069-0.009 0.137-0.021 0.205-0.032 0.178-0.028 0.352-0.064 0.522-0.107 0.048-0.012 0.097-0.017 0.144-0.030v3.951h-3.2v-3.953c0.047 0.013 0.096 0.018 0.144 0.030 0.171 0.044 0.345 0.081 0.522 0.109zM19.825 20.267c0.006 0.019 0.017 0.035 0.024 0.053 0.011 0.028 0.023 0.053 0.036 0.083 0.028 0.060 0.060 0.119 0.095 0.176 0.016 0.025 0.031 0.051 0.049 0.075 0.045 0.063 0.095 0.124 0.149 0.18 0.011 0.011 0.020 0.024 0.031 0.035 0.066 0.065 0.137 0.125 0.213 0.178 0.021 0.014 0.044 0.027 0.067 0.041 0.058 0.036 0.118 0.069 0.181 0.098 0.029 0.013 0.059 0.025 0.089 0.037 0.063 0.024 0.127 0.044 0.192 0.060 0.030 0.007 0.058 0.016 0.088 0.021 0.193 0.040 0.393 0.040 0.587 0 0.030-0.005 0.058-0.014 0.087-0.021 0.065-0.016 0.13-0.036 0.193-0.060 0.030-0.012 0.059-0.023 0.088-0.037 0.062-0.029 0.123-0.062 0.181-0.098 0.022-0.014 0.045-0.026 0.067-0.041 0.076-0.053 0.147-0.113 0.213-0.178 0.011-0.011 0.020-0.024 0.031-0.035 0.054-0.056 0.104-0.117 0.149-0.18 0.018-0.025 0.032-0.050 0.049-0.075 0.035-0.057 0.067-0.115 0.095-0.176 0.013-0.028 0.026-0.053 0.037-0.083 0.007-0.018 0.017-0.035 0.023-0.053h1.162v2.133h-5.333v-2.133zM20.8 19.733c0-0.294 0.239-0.533 0.533-0.533s0.533 0.239 0.533 0.533c0 0.295-0.239 0.533-0.533 0.533s-0.533-0.239-0.533-0.533zM8.001 22.4v-2.133h1.158c0.006 0.019 0.017 0.035 0.024 0.053 0.011 0.028 0.024 0.053 0.036 0.083 0.028 0.060 0.060 0.119 0.095 0.176 0.016 0.025 0.031 0.051 0.049 0.075 0.045 0.063 0.095 0.124 0.149 0.18 0.011 0.011 0.020 0.024 0.031 0.035 0.066 0.065 0.137 0.125 0.213 0.178 0.021 0.014 0.044 0.027 0.067 0.041 0.058 0.036 0.118 0.069 0.181 0.098 0.030 0.013 0.059 0.025 0.089 0.037 0.063 0.024 0.127 0.044 0.193 0.060 0.029 0.007 0.058 0.016 0.087 0.021 0.194 0.040 0.393 0.040 0.587 0 0.030-0.005 0.058-0.014 0.087-0.021 0.065-0.016 0.13-0.036 0.193-0.060 0.030-0.012 0.059-0.023 0.088-0.037 0.063-0.029 0.123-0.062 0.181-0.098 0.022-0.014 0.045-0.026 0.067-0.041 0.076-0.053 0.147-0.113 0.213-0.178 0.011-0.011 0.020-0.024 0.031-0.035 0.054-0.056 0.104-0.117 0.149-0.18 0.018-0.025 0.032-0.050 0.049-0.075 0.035-0.057 0.067-0.115 0.095-0.176 0.013-0.028 0.026-0.053 0.037-0.083 0.007-0.018 0.017-0.035 0.023-0.053h1.162v2.133zM10.134 19.733c0-0.294 0.239-0.533 0.533-0.533s0.533 0.239 0.533 0.533c0 0.295-0.239 0.533-0.533 0.533s-0.533-0.239-0.533-0.533zM9.601 28.463v-0.73h0.996l-0.17 1.36c-0.147-0.053-0.292-0.112-0.438-0.154-0.221-0.054-0.379-0.249-0.387-0.476zM17.647 27.733l0.231 2.54c-0.446 0.060-0.894 0.097-1.344 0.111v-2.651zM20.329 27.733l0.224 1.788c-0.526 0.227-1.068 0.411-1.623 0.552l-0.21-2.34zM15.467 30.384c-0.45-0.014-0.898-0.051-1.344-0.111l0.231-2.54h1.113zM13.071 30.073c-0.555-0.141-1.097-0.325-1.623-0.552l0.224-1.788h1.611zM22.4 28.463c-0.008 0.228-0.166 0.422-0.387 0.476-0.146 0.042-0.292 0.098-0.438 0.154l-0.17-1.36h0.996zM24 26.133c0 0.294-0.239 0.533-0.533 0.533h-14.933c-0.294 0-0.533-0.239-0.533-0.533v-0.533h15.999zM24.534 24.533h-17.066c-0.294 0-0.533-0.239-0.533-0.533s0.239-0.533 0.533-0.533h17.066c0.295 0 0.533 0.239 0.533 0.533s-0.239 0.533-0.533 0.533zM22.843 19.2c-0.006-0.019-0.017-0.035-0.023-0.053-0.012-0.029-0.025-0.053-0.037-0.083-0.028-0.060-0.060-0.119-0.095-0.175-0.016-0.026-0.031-0.053-0.049-0.076-0.045-0.064-0.095-0.124-0.149-0.18-0.011-0.011-0.020-0.024-0.031-0.035-0.066-0.065-0.137-0.124-0.213-0.177-0.021-0.015-0.045-0.027-0.067-0.041-0.058-0.036-0.118-0.069-0.18-0.098-0.029-0.013-0.059-0.025-0.090-0.037-0.063-0.024-0.127-0.044-0.192-0.060-0.029-0.007-0.058-0.016-0.087-0.021-0.194-0.040-0.393-0.040-0.587 0-0.030 0.005-0.058 0.014-0.087 0.021-0.065 0.016-0.129 0.036-0.192 0.060-0.030 0.012-0.060 0.023-0.089 0.037-0.063 0.029-0.123 0.062-0.181 0.098-0.022 0.014-0.045 0.026-0.067 0.041-0.076 0.053-0.147 0.113-0.213 0.177-0.011 0.011-0.020 0.024-0.031 0.035-0.054 0.057-0.104 0.117-0.149 0.18-0.018 0.024-0.032 0.050-0.049 0.075-0.035 0.056-0.067 0.115-0.095 0.176-0.013 0.028-0.026 0.053-0.037 0.083-0.008 0.018-0.018 0.035-0.024 0.053h-1.162v-1.173c0.030-0.015 0.057-0.034 0.086-0.050 0.053-0.029 0.107-0.061 0.16-0.091 0.121-0.069 0.242-0.14 0.357-0.218 0.016-0.011 0.031-0.023 0.047-0.034 0.453-0.308 0.86-0.678 1.209-1.101h2.407v2.667zM22.88 15.467h-1.653c0.151-0.295 0.276-0.602 0.373-0.918l0.006-0.020c0.051-0.164 0.093-0.332 0.129-0.501 0.006-0.029 0.013-0.058 0.019-0.087 0.009-0.045 0.020-0.090 0.028-0.136 0.567 0.391 0.96 0.986 1.098 1.661zM20.8 12.8c0 0.089-0.009 0.175-0.013 0.262-0.010 0.179-0.029 0.357-0.058 0.533-0.008 0.046-0.012 0.093-0.021 0.139-0.039 0.196-0.091 0.39-0.155 0.579-0.021 0.063-0.045 0.124-0.068 0.186-0.062 0.164-0.133 0.324-0.213 0.48-0.016 0.033-0.030 0.066-0.047 0.098-0.099 0.178-0.208 0.35-0.327 0.515-0.044 0.062-0.089 0.123-0.136 0.182-0.064 0.081-0.132 0.16-0.201 0.234-0.053 0.062-0.107 0.126-0.167 0.185-0.113 0.113-0.231 0.219-0.355 0.32-0.070 0.057-0.144 0.106-0.216 0.16s-0.156 0.111-0.237 0.163c-0.071 0.045-0.142 0.088-0.213 0.129-0.107 0.060-0.216 0.116-0.328 0.169-0.056 0.027-0.11 0.053-0.167 0.080s-0.107 0.041-0.16 0.062c-0.092 0.035-0.184 0.072-0.279 0.102-0.936 0.29-1.938 0.29-2.874 0-0.095-0.030-0.187-0.067-0.279-0.103-0.053-0.021-0.107-0.038-0.16-0.061s-0.111-0.053-0.167-0.080c-0.112-0.053-0.222-0.107-0.328-0.169-0.071-0.041-0.142-0.084-0.213-0.129-0.081-0.053-0.16-0.107-0.237-0.163s-0.147-0.107-0.217-0.16c-0.123-0.101-0.241-0.207-0.354-0.32-0.059-0.059-0.112-0.123-0.167-0.185-0.069-0.076-0.137-0.153-0.201-0.234-0.047-0.060-0.092-0.121-0.136-0.182-0.119-0.165-0.229-0.337-0.327-0.515-0.017-0.032-0.031-0.065-0.047-0.097-0.080-0.156-0.151-0.316-0.213-0.48-0.023-0.062-0.048-0.123-0.068-0.186-0.064-0.19-0.116-0.383-0.155-0.579-0.009-0.045-0.013-0.092-0.021-0.138-0.029-0.177-0.049-0.355-0.058-0.533-0.004-0.088-0.012-0.174-0.012-0.263 0.004-2.407 1.788-4.439 4.174-4.754 0.046-0.007 0.092-0.017 0.139-0.021s0.092-0.004 0.137-0.007c0.232-0.017 0.466-0.017 0.698 0 0.045 0.003 0.092 0.003 0.137 0.007s0.093 0.015 0.139 0.021c2.386 0.315 4.17 2.347 4.174 4.754zM15.467 6.958v-3.224h1.067v3.224c-0.178-0.016-0.355-0.024-0.533-0.024s-0.356 0.008-0.533 0.024z"></path>
</symbol>
</defs>
</svg>
