<svg xmlns="http://www.w3.org/2000/svg" viewBox="0 0 283.46 142.02"><defs><style>.cls-1{fill:#eddbcd;}.cls-2{fill:none;}</style></defs><title>Artboard 21</title><g id="mountain"><path class="cls-1" d="M127.46,107.85H56l.28-.43L92,45.45l.21.51,35.49,61.46-.25.18ZM57,107.28h69.86l-18.6-21.86L91.93,46.73Zm51.78-22.13L125.63,105,94,50.23Z"/><path class="cls-1" d="M194.15,107.85h-106v-.29l-.25-.14,53.26-92.24,53.25,92.24-.25.14Zm-105.51-.57h105l-52.5-90.95Z"/><path class="cls-1" d="M226.94,107.85H136v-.29l-.25-.14,45.53-78.86,45.52,78.86-.25.14Zm-90.49-.57H226L181.23,29.71Z"/><polygon class="cls-1" points="88.14 107.46 70.43 95.52 91.7 45.98 92.23 46.2 71.24 95.09 88.38 106.82 88.14 107.46"/><polygon class="cls-1" points="56.66 107.78 56.29 107.34 70.77 95.02 85.11 92.02 85.23 92.59 70.96 95.57 56.66 107.78"/><polygon class="cls-1" points="226.26 107.72 188.46 50.17 180.96 29.24 181.5 29.04 188.97 49.92 227.08 107.87 226.26 107.72"/><path class="cls-1" d="M161.24,98.69l-.08,0-25,8.52-5.43-22.34L108.37,85,87.93,107.37l.42.39,20.28-22.17,21.64-.16,5.43,22.31h.6l24.88-8.48,32.25,8.48.14-.56Z"/><polygon class="cls-1" points="88.2 107.36 84.86 92.41 91.6 46.71 92.17 46.79 85.47 92.2 88.7 106.81 88.2 107.36"/><rect class="cls-1" x="82.83" y="84.77" width="24.84" height="0.58" transform="translate(-31.75 71.67) rotate(-35.75)"/><path class="cls-1" d="M195.6,95.07,193.94,107,164.35,82.25l-.15-.13L143.35,94.3l-12.68-9.39-.34.46,13,9.61,20.82-12.16,29.85,25,.42,0,1.66-11.91,29.82,11.7.22-.53Z"/><path class="cls-1" d="M195.55,95.52l-7.07-45L159.17,68.17l-.14.1-.15.08L130.12,85.7,136.79,43l-26.23,34.7-.46-.35L137,41.75l4.14-26.5L159,67.61l29.85-18,.2,1,7.09,44.84ZM137.42,42.7l-6.54,41.87L158.5,67.9l0,0Zm.11-.76,20.4,24.39-16.6-48.69Z"/><polygon class="cls-1" points="161.45 99.02 160.88 98.92 163.87 82.5 158.7 68.31 159.23 68.07 164.46 82.45 164.45 82.52 161.45 99.02"/><line class="cls-2" x1="41.83" y1="79.64" x2="53.67" y2="63.64"/></g><g id="mountain_alphabet"><path class="cls-1" d="M147.55,117v0h0L145.11,122l-2.54-5-2.42,4.86L137.77,117h-.59v11h.59v-9.65l4.92,9.78,4.86-9.77V128h.59V117Zm-7.08,5.42,2.1-4.25,2.22,4.44-2.1,4.26Z"/><path class="cls-1" d="M226.57,117.7v-.58h-8.72v.59h4v10.41h.59v-4.32l3-6.09Zm-4.14,4.73V117.7h2.36Z"/><path class="cls-1" d="M200.7,117.12v1.43l-2.42,4.91-4.2-6.33h-.6v11h.59v-9.85l6.63,9.84h.59v-11Zm-2,6.89,2-4.11v7.2Z"/><path class="cls-1" d="M175.3,124.69a5.43,5.43,0,0,0,.38-2.63s0,0,0,0a4,4,0,0,0-.07-.48l0-.15c0-.12-.06-.24-.1-.36l-.06-.18a1.55,1.55,0,0,0-.08-.23h0a5.52,5.52,0,0,0-5.13-3.51,5.42,5.42,0,0,0-2.25.49h0l0,0a6.18,6.18,0,0,0-.79.45l-.14.1a4.7,4.7,0,0,0-.55.45h0a5.31,5.31,0,0,0-1.31,1.89,5.44,5.44,0,0,0,0,4.21,5.31,5.31,0,0,0,1.29,1.86h0l.16.14.19.16.32.23.09.07a5.47,5.47,0,0,0,3,.91,5.5,5.5,0,0,0,5.05-3.32l0-.05Zm-.26-1.21,0,.14a4.25,4.25,0,0,1-.23.77.36.36,0,0,0,0,.11,4.73,4.73,0,0,1-.39.74l-.08.13a4.92,4.92,0,0,1-.5.61l-.13.14a5.46,5.46,0,0,1-.64.53l-.06,0a6,6,0,0,1-.83.45,4.92,4.92,0,0,1-1.75.38l3.83-7.77a5,5,0,0,1,.62,1.16,5.2,5.2,0,0,1,.22.77s0,.1,0,.15a5.14,5.14,0,0,1,.07.78h0s0,.1,0,.16A5.69,5.69,0,0,1,175,123.48Zm-9.37,1a4.91,4.91,0,0,1,1.64-5.86l.13-.08a4.52,4.52,0,0,1,.71-.41,4.89,4.89,0,0,1,5.65,1.13l-4.09,8.21a4.51,4.51,0,0,1-1.37-.34,4.23,4.23,0,0,1-.84-.45l0,0A4.83,4.83,0,0,1,165.67,124.5Z"/><polygon class="cls-1" points="69.3 116.89 68.63 116.9 65.96 122.29 65.96 116.9 65.37 116.9 65.37 123.48 63.7 126.86 62.05 123.52 62.05 116.91 61.47 116.9 61.47 122.33 58.78 116.9 58.11 116.9 61.47 123.63 61.47 127.88 62.05 127.88 62.05 124.81 63.7 128.11 65.37 124.76 65.37 127.88 65.96 127.88 65.96 123.58 69.3 116.89"/><path class="cls-1" d="M93,117.46v-.56H86.62v10.37H93v-.55h-5.6l2.75-5.5.13-.25H87.18v-3.52Zm-3.62,4.07L87.18,126v-4.47Z"/><path class="cls-1" d="M117.56,127.77l-2.33-4.62a3.19,3.19,0,0,0,1.9-2.93,3.32,3.32,0,0,0-3.32-3.32H111v10.87h.58v-4.28h2.1s.46,0,.72-.07l.25-.07,2.2,4.41Zm-3.75-10.29a2.74,2.74,0,0,1,2.74,2.74,2.63,2.63,0,0,1-1.58,2.41L112.64,118l-1,2v-2.54Zm0,5.4h-2.19v-1.6l1-2,1.78,3.58A3.08,3.08,0,0,1,113.81,122.88Z"/></g></svg>